<svg xmlns="http://www.w3.org/2000/svg" xmlns:xlink="http://www.w3.org/1999/xlink" version="1.1" viewBox="0 0 2500 1000" style="background: #111111"><g transform="translate(25,100)"><rect width="450" height="300" rx="3" ry="3" x="0" y="0" fill="#7c3aed" stroke-width="2" stroke="#7034d5" stroke-dasharray=""/><text x="225" y="95" text-anchor="middle" dominant-baseline="hanging" fill="#ffffff" font-size="30px" font-family="Tahoma, Verdana, Helvetica, Arial"><tspan x="225" dy="40px">Admin Service</tspan></text></g><g transform="translate(525,100)"><rect width="450" height="300" rx="3" ry="3" x="0" y="0" fill="#111111" stroke-width="2" stroke="#1b1844" stroke-dasharray=""/><text x="225" y="77" text-anchor="middle" dominant-baseline="hanging" fill="#ffffff" font-size="30px" font-family="Tahoma, Verdana, Helvetica, Arial"><tspan x="225" dy="40px">Boundary, Software</tspan><tspan x="225" dy="40px">System</tspan></text></g><g transform="translate(1025,100)"><path id="keyElementCylinderPath" d="M 0,22.5 a 225,22.5 0,0,0 450 0 a 225,22.5 0,0,0 -450 0 l 0,255 a 225,22.5 0,0,0 450 0 l 0,-255" fill="#d97706" stroke-width="2" stroke="#c36b05" stroke-dasharray=""></path><text x="225" y="117.5" text-anchor="middle" dominant-baseline="hanging" fill="#ffffff" font-size="30px" font-family="Tahoma, Verdana, Helvetica, Arial"><tspan x="225" dy="40px">Cache</tspan></text></g><g transform="translate(1525,100)"><path id="keyElementCylinderPath" d="M 0,22.5 a 225,22.5 0,0,0 450 0 a 225,22.5 0,0,0 -450 0 l 0,255 a 225,22.5 0,0,0 450 0 l 0,-255" fill="#0891b2" stroke-width="2" stroke="#0783a0" stroke-dasharray=""></path><text x="225" y="117.5" text-anchor="middle" dominant-baseline="hanging" fill="#ffffff" font-size="30px" font-family="Tahoma, Verdana, Helvetica, Arial"><tspan x="225" dy="40px">Database</tspan></text></g><g transform="translate(2025,25)"><rect x="0" y="180" width="450" height="270" rx="90" fill="#4f46e5" stroke-width="2" stroke="#473fce" stroke-dasharray=""/><circle cx="225" cy="100" r="100" fill="#4f46e5" stroke-width="2" stroke="#473fce" stroke-dasharray=""/><line x1="90" y1="300" x2="90" y2="450" stroke-width="1" stroke="#473fce" stroke-dasharray=""/><line x1="360" y1="300" x2="360" y2="450" stroke-width="1" stroke="#473fce" stroke-dasharray=""/><text x="225" y="260" text-anchor="middle" dominant-baseline="hanging" fill="#ffffff" font-size="30px" font-family="Tahoma, Verdana, Helvetica, Arial"><tspan x="225" dy="40px">Person</tspan></text></g><g transform="translate(25,600)"><rect width="450" height="300" rx="3" ry="3" x="0" y="0" fill="#2563eb" stroke-width="2" stroke="#2159d4" stroke-dasharray=""/><text x="225" y="95" text-anchor="middle" dominant-baseline="hanging" fill="#ffffff" font-size="30px" font-family="Tahoma, Verdana, Helvetica, Arial"><tspan x="225" dy="40px">Public API</tspan></text></g><g transform="translate(525,600)"><rect width="450" height="300" rx="3" ry="3" x="0" y="0" fill="#059669" stroke-width="2" stroke="#05875f" stroke-dasharray=""/><text x="225" y="95" text-anchor="middle" dominant-baseline="hanging" fill="#ffffff" font-size="30px" font-family="Tahoma, Verdana, Helvetica, Arial"><tspan x="225" dy="40px">Web Server</tspan></text></g><g transform="translate(1025,670)"><path d="M422,0 L422,44 L450,30 L 422,16" style="fill:#cccccc" /><path d="M0,30 L422,30" style="stroke:#cccccc; stroke-width: 2; fill: none; stroke-dasharray: 8 8;" /><text x="225" y="55" text-anchor="middle" dominant-baseline="hanging" fill="#cccccc" font-size="30px" font-family="Tahoma, Verdana, Helvetica, Arial"><tspan x="225" dy="40px">Relationship</tspan></text></g></svg>