<svg xmlns="http://www.w3.org/2000/svg" xmlns:xlink="http://www.w3.org/1999/xlink" version="1.1" style="background: #111111" viewBox="0 0 1590 1250"><style id="v-3" type="text/css">        .joint-element .scalable * {            vector-effect: non-scaling-stroke;        }    </style><defs joint-selector="defs"><marker id="v-2-527367903" orient="auto" overflow="visible" markerUnits="userSpaceOnUse"><path id="v-65" stroke="#cccccc" fill="#cccccc" transform="rotate(180)" d="M 20 -10 0 0 20 10 Z"></path></marker></defs><g joint-selector="layers"  transform="matrix(1,0,0,1,0,0)"><g  style="pointer-events: none;"></g><g ></g><g  style="user-select: none;"><!--z-index:0--><!--z-index:1--><!--z-index:2--><!--z-index:3--><!--z-index:4--><!--z-index:5--><!--z-index:6--><!--z-index:7--><g   id="j_55"  transform="translate(20,1206)"><g id="v-584"><text  id="v-585" font-size="24px" xml:space="preserve" y="0.8em" font-weight="normal" text-anchor="start" fill="#cccccc" pointer-events="none" display="block" font-family="Tahoma, Verdana, Helvetica, Arial"><tspan dy="0"  display="none">viernes, 22 de mayo de 2026, 2:17 p.m. hora de Bolivia</tspan></text></g></g><!--z-index:8--><g   id="j_54"  transform="translate(20,1172)"><g id="v-582"><text  id="v-583" font-size="24px" xml:space="preserve" y="0.8em" font-weight="normal" text-anchor="start" fill="#cccccc" pointer-events="none" display="block" font-family="Tahoma, Verdana, Helvetica, Arial"><tspan dy="0"  display="none">C4 Level 1 - System Context</tspan></text></g></g><!--z-index:9--><g   id="j_53"  transform="translate(20,1126)"><g id="v-580"><text  id="v-581" font-size="36px" xml:space="preserve" y="0.8em" font-weight="normal" text-anchor="start" fill="#cccccc" pointer-events="none" display="block" font-family="Tahoma, Verdana, Helvetica, Arial"><tspan dy="0"  display="none">System Context View: Conference Platform</tspan></text></g></g><!--z-index:10--><g   id="j_56"  transform="translate(200,143)" style=""><g  id="v-589" style="opacity: 1;"><rect  x="0" y="160" width="400" height="240" rx="70" id="v-591" stroke-width="2" pointer-events="visiblePainted" fill="#4f46e5" stroke="#473fce" stroke-dasharray="" style="fill: rgb(79, 70, 229); stroke: rgb(71, 63, 206);"></rect><circle  cx="200" cy="88.88888888888889" r="88.88888888888889" id="v-590" stroke-width="2" pointer-events="visiblePainted" fill="#4f46e5" stroke="#473fce" stroke-dasharray="" style="fill: rgb(79, 70, 229); stroke: rgb(71, 63, 206);"></circle><line  x1="80" y1="266.6666666666667" x2="80" y2="400" id="v-597" stroke="#473fce" stroke-width="1" stroke-dasharray="" style="stroke: rgb(71, 63, 206);"></line><line  x1="320" y1="266.6666666666667" x2="320" y2="400" id="v-598" stroke="#473fce" stroke-width="1" stroke-dasharray="" style="stroke: rgb(71, 63, 206);"></line><text  id="v-592" font-size="33.599999999999994px" xml:space="preserve" y="202.5" font-weight="bold" text-anchor="middle" pointer-events="visible" font-family="Tahoma, Verdana, Helvetica, Arial" fill="#ffffff" dominant-baseline="hanging" transform="matrix(1,0,0,1,200,0)" style="fill: rgb(255, 255, 255);"><tspan dy="0" >Attendee</tspan></text><text  id="v-593" font-size="16.799999999999997px" xml:space="preserve" y="244.1" text-anchor="middle" font-family="Tahoma, Verdana, Helvetica, Arial" fill="#ffffff" dominant-baseline="hanging" transform="matrix(1,0,0,1,200,0)" style="display: block; fill: rgb(255, 255, 255);"><tspan dy="0" >[Person]</tspan></text><text  id="v-594" font-size="24px" xml:space="preserve" y="275.9" text-anchor="middle" font-family="Tahoma, Verdana, Helvetica, Arial" fill="#ffffff" dominant-baseline="hanging" transform="matrix(1,0,0,1,200,0)" style="display: block; fill: rgb(255, 255, 255);"><tspan dy="0" >Browses sessions and checks</tspan><tspan dy="1.2em" x="0" >seat availability via the web</tspan><tspan dy="1.2em" x="0" >app.</tspan></text><g  id="v-595" font-weight="normal" text-anchor="middle" color="#ffffff" transform="matrix(1,0,0,1,197.5,368)" display="none" style="fill: rgb(255, 255, 255);"><g ></g><g ></g><g ></g><g ></g></g><image  id="v-596"></image></g></g><!--z-index:11--><g   id="j_57"  transform="translate(200,593)" style=""><g  id="v-602" style="opacity: 1;"><rect  x="0" y="160" width="400" height="240" rx="70" id="v-604" stroke-width="2" pointer-events="visiblePainted" fill="#4f46e5" stroke="#473fce" stroke-dasharray="" style="fill: rgb(79, 70, 229); stroke: rgb(71, 63, 206);"></rect><circle  cx="200" cy="88.88888888888889" r="88.88888888888889" id="v-603" stroke-width="2" pointer-events="visiblePainted" fill="#4f46e5" stroke="#473fce" stroke-dasharray="" style="fill: rgb(79, 70, 229); stroke: rgb(71, 63, 206);"></circle><line  x1="80" y1="266.6666666666667" x2="80" y2="400" id="v-610" stroke="#473fce" stroke-width="1" stroke-dasharray="" style="stroke: rgb(71, 63, 206);"></line><line  x1="320" y1="266.6666666666667" x2="320" y2="400" id="v-611" stroke="#473fce" stroke-width="1" stroke-dasharray="" style="stroke: rgb(71, 63, 206);"></line><text  id="v-605" font-size="33.599999999999994px" xml:space="preserve" y="202.5" font-weight="bold" text-anchor="middle" pointer-events="visible" font-family="Tahoma, Verdana, Helvetica, Arial" fill="#ffffff" dominant-baseline="hanging" transform="matrix(1,0,0,1,200,0)" style="fill: rgb(255, 255, 255);"><tspan dy="0" >Ops Team</tspan></text><text  id="v-606" font-size="16.799999999999997px" xml:space="preserve" y="244.1" text-anchor="middle" font-family="Tahoma, Verdana, Helvetica, Arial" fill="#ffffff" dominant-baseline="hanging" transform="matrix(1,0,0,1,200,0)" style="display: block; fill: rgb(255, 255, 255);"><tspan dy="0" >[Person]</tspan></text><text  id="v-607" font-size="24px" xml:space="preserve" y="275.9" text-anchor="middle" font-family="Tahoma, Verdana, Helvetica, Arial" fill="#ffffff" dominant-baseline="hanging" transform="matrix(1,0,0,1,200,0)" style="display: block; fill: rgb(255, 255, 255);"><tspan dy="0" >Manages conferences, tracks,</tspan><tspan dy="1.2em" x="0" >sessions and registrations via</tspan><tspan dy="1.2em" x="0" >admin.</tspan></text><g  id="v-608" font-weight="normal" text-anchor="middle" color="#ffffff" transform="matrix(1,0,0,1,197.5,368)" display="none" style="fill: rgb(255, 255, 255);"><g ></g><g ></g><g ></g><g ></g></g><image  id="v-609"></image></g></g><!--z-index:12--><g   id="j_58"  transform="translate(940,418)" style=""><g  id="v-618" style="opacity: 1;"><rect  id="v-619" rx="1" ry="1" stroke-width="2" pointer-events="visiblePainted" fill="#1e1b4b" stroke="#1b1844" stroke-dasharray="" width="450" height="300" style="fill: rgb(30, 27, 75); stroke: rgb(27, 24, 68);"></rect><text  id="v-620" font-size="33.599999999999994px" xml:space="preserve" y="86.9" font-weight="bold" text-anchor="middle" pointer-events="visible" font-family="Tahoma, Verdana, Helvetica, Arial" fill="#ffffff" dominant-baseline="hanging" transform="matrix(1,0,0,1,225,0)" style="fill: rgb(255, 255, 255);"><tspan dy="0" >Conference Platform</tspan></text><text  id="v-621" font-size="16.799999999999997px" xml:space="preserve" y="128.5" text-anchor="middle" font-family="Tahoma, Verdana, Helvetica, Arial" fill="#ffffff" dominant-baseline="hanging" transform="matrix(1,0,0,1,225,0)" style="display: block; fill: rgb(255, 255, 255);"><tspan dy="0" >[Software System]</tspan></text><text  id="v-622" font-size="24px" xml:space="preserve" y="160.3" text-anchor="middle" font-family="Tahoma, Verdana, Helvetica, Arial" fill="#ffffff" dominant-baseline="hanging" transform="matrix(1,0,0,1,225,0)" style="display: block; fill: rgb(255, 255, 255);"><tspan dy="0" >Public session listing + operations</tspan><tspan dy="1.2em" x="0" >admin panel.</tspan></text><g  id="v-623" color="#ffffff" transform="matrix(1,0,0,1,210,268)" display="none" style="fill: rgb(255, 255, 255);"><g  transform="translate(5 0)"><svg xmlns="http://www.w3.org/2000/svg" width="20" height="20" fill="currentColor" viewBox="0 0 16 16"><path fill-rule="evenodd" d="M6.5 12a5.5 5.5 0 1 0 0-11 5.5 5.5 0 0 0 0 11zM13 6.5a6.5 6.5 0 1 1-13 0 6.5 6.5 0 0 1 13 0z"></path><path d="M10.344 11.742c.03.04.062.078.098.115l3.85 3.85a1 1 0 0 0 1.415-1.414l-3.85-3.85a1.007 1.007 0 0 0-.115-.1 6.538 6.538 0 0 1-1.398 1.4z"></path><path fill-rule="evenodd" d="M6.5 3a.5.5 0 0 1 .5.5V6h2.5a.5.5 0 0 1 0 1H7v2.5a.5.5 0 0 1-1 0V7H3.5a.5.5 0 0 1 0-1H6V3.5a.5.5 0 0 1 .5-.5z"></path></svg></g><g ></g><g ></g><g ></g></g><image  id="v-624"></image></g></g><!--z-index:13--><g   id="j_59"  style="opacity: 1;"><path fill="none" cursor="pointer" stroke="transparent" stroke-linecap="round" joint-selector="wrapper" id="v-639" stroke-width="10" stroke-linejoin="round" d="M 600 343 L 760 343 C 766.6666666666665 343 772.9999999999999 344.66666666666663 779 348 L 940 439.84"></path><path fill="none" pointer-events="none" joint-selector="line" id="v-638" stroke="#cccccc" stroke-width="2" stroke-linejoin="round" stroke-dasharray="8 8" d="M 600 343 L 760 343 C 766.6666666666665 343 772.9999999999999 344.66666666666663 779 348 L 940 439.84" marker-end="url(#v-2-527367903)"></path><g id="v-628" ><g id="v-629"  label-idx="0" cursor="move" transform="matrix(1,0,0,1,769.712890625,330.8402404785156)" style="cursor: default;"><rect joint-selector="rect" id="v-633" fill="#111111" rx="3" ry="3" x="-91.2589111328125" y="-16.959545135498047" width="183.8881378173828" height="28.68946075439453" pointer-events="none"  style="display: block;"></rect><text joint-selector="text" id="v-632" font-size="24px" xml:space="preserve" fill="#cccccc" text-anchor="middle" pointer-events="none" font-family="Tahoma, Verdana, Helvetica, Arial" font-weight="normal"  style="display: block;"><tspan dy="0.3em" >Browses sessions</tspan></text></g><g id="v-630"  label-idx="1" cursor="move" transform="matrix(1,0,0,1,769.712890625,361.2402648925781)" style="cursor: default;"><rect joint-selector="rect" id="v-635" fill="#111111" rx="3" ry="3" x="-45.55867385864258" y="-11.569687843322754" width="91.11734771728516" height="19.62963104248047"  pointer-events="none" style="display: block;"></rect><text joint-selector="text" id="v-634" font-size="16.799999999999997px" xml:space="preserve" fill="#cccccc" text-anchor="middle" pointer-events="none" font-family="Tahoma, Verdana, Helvetica, Arial" font-weight="normal"  style="display: block;"><tspan dy="0.3em" >[HTTPS :80]</tspan></text></g><g id="v-631"  label-idx="2" cursor="move" transform="matrix(1,0,0,1,771.3849487304688,374.7604675292969)" style="cursor: default;"><rect joint-selector="rect" id="v-637" fill="#ffffff" rx="3" ry="3" x="0" y="-5.684341886080802e-14" width="0" height="0"  display="none"></rect><text joint-selector="text" id="v-636" fill="#000000" font-size="14" text-anchor="middle" text-vertical-anchor="middle" pointer-events="none"></text></g></g></g><!--z-index:14--><g   id="j_60"  style="opacity: 1;"><path fill="none" cursor="pointer" stroke="transparent" stroke-linecap="round" joint-selector="wrapper" id="v-657" stroke-width="10" stroke-linejoin="round" d="M 600 793 L 760 793 C 766.6666666666665 793 772.9999999999999 791.3333333333333 779 788 L 940 696.16"></path><path fill="none" pointer-events="none" joint-selector="line" id="v-656" stroke="#cccccc" stroke-width="2" stroke-linejoin="round" stroke-dasharray="8 8" d="M 600 793 L 760 793 C 766.6666666666665 793 772.9999999999999 791.3333333333333 779 788 L 940 696.16" marker-end="url(#v-2-527367903)"></path><g id="v-646" ><g id="v-647"  label-idx="0" cursor="move" transform="matrix(1,0,0,1,769.712890625,778.3597412109375)" style="cursor: default;"><rect joint-selector="rect" id="v-651" fill="#111111" rx="3" ry="3" x="-84.86511993408203" y="-31.359548568725586" width="169.73023986816406" height="57.489463806152344" pointer-events="none"  style="display: block;"></rect><text joint-selector="text" id="v-650" font-size="24px" xml:space="preserve" fill="#cccccc" text-anchor="middle" pointer-events="none" font-family="Tahoma, Verdana, Helvetica, Arial" font-weight="normal"  style="display: block;"><tspan dy="-0.3em" >Manages</tspan><tspan dy="1.2em" x="0" >conference data</tspan></text></g><g id="v-648"  label-idx="1" cursor="move" transform="matrix(1,0,0,1,769.712890625,823.1597290039062)" style="cursor: default;"><rect joint-selector="rect" id="v-653" fill="#111111" rx="3" ry="3" x="-77.303466796875" y="-11.569687843322754" width="154.60693359375" height="19.62963104248047"  pointer-events="none" style="display: block;"></rect><text joint-selector="text" id="v-652" font-size="16.799999999999997px" xml:space="preserve" fill="#cccccc" text-anchor="middle" pointer-events="none" font-family="Tahoma, Verdana, Helvetica, Arial" font-weight="normal"  style="display: block;"><tspan dy="0.3em" >[HTTPS :80 /admin/]</tspan></text></g><g id="v-649"  label-idx="2" cursor="move" transform="matrix(1,0,0,1,771.3849487304688,826.4395141601562)" style="cursor: default;"><rect joint-selector="rect" id="v-655" fill="#ffffff" rx="3" ry="3" x="0" y="0" width="0" height="0"  display="none"></rect><text joint-selector="text" id="v-654" fill="#000000" font-size="14" text-anchor="middle" text-vertical-anchor="middle" pointer-events="none"></text></g></g></g><!--z-index:15--><!--z-index:16--><!--z-index:17--><!--z-index:18--><!--z-index:19--><!--z-index:20--><!--z-index:21--><!--z-index:22--><!--z-index:23--><!--z-index:24--><!--z-index:25--><!--z-index:26--><!--z-index:27--><!--z-index:28--><!--z-index:29--><!--z-index:30--><!--z-index:31--><!--z-index:32--><!--z-index:33--><!--z-index:34--><!--z-index:35--></g><g  style="user-select: none;"></g><g ></g><g  display="none"></g></g></svg>