<svg xmlns="http://www.w3.org/2000/svg" xmlns:xlink="http://www.w3.org/1999/xlink" version="1.1" style="background: #111111" viewBox="0 0 3270 1337"><style id="v-3" type="text/css">        .joint-element .scalable * {            vector-effect: non-scaling-stroke;        }    </style><defs joint-selector="defs"><marker id="v-2-527367903" orient="auto" overflow="visible" markerUnits="userSpaceOnUse"><path id="v-65" stroke="#cccccc" fill="#cccccc" transform="rotate(180)" d="M 20 -10 0 0 20 10 Z"></path></marker></defs><g joint-selector="layers"  transform="matrix(1,0,0,1,0,0)"><g  style="pointer-events: none;"></g><g ></g><g  style="user-select: none;"><!--z-index:0--><!--z-index:1--><!--z-index:2--><!--z-index:3--><!--z-index:4--><!--z-index:5--><!--z-index:6--><!--z-index:7--><!--z-index:8--><!--z-index:9--><!--z-index:10--><!--z-index:11--><!--z-index:12--><!--z-index:13--><!--z-index:14--><!--z-index:15--><!--z-index:16--><!--z-index:17--><g   id="j_63"  transform="translate(20,1293)"><g id="v-662"><text  id="v-663" font-size="24px" xml:space="preserve" y="0.8em" font-weight="normal" text-anchor="start" fill="#cccccc" pointer-events="none" display="block" font-family="Tahoma, Verdana, Helvetica, Arial"><tspan dy="0"  display="none">viernes, 22 de mayo de 2026, 2:17 p.m. hora de Bolivia</tspan></text></g></g><!--z-index:18--><g   id="j_62"  transform="translate(20,1259)"><g id="v-660"><text  id="v-661" font-size="24px" xml:space="preserve" y="0.8em" font-weight="normal" text-anchor="start" fill="#cccccc" pointer-events="none" display="block" font-family="Tahoma, Verdana, Helvetica, Arial"><tspan dy="0"  display="none">C4 Level 2 - Container Diagram</tspan></text></g></g><!--z-index:19--><g   id="j_61"  transform="translate(20,1213)"><g id="v-658"><text  id="v-659" font-size="36px" xml:space="preserve" y="0.8em" font-weight="normal" text-anchor="start" fill="#cccccc" pointer-events="none" display="block" font-family="Tahoma, Verdana, Helvetica, Arial"><tspan dy="0"  display="none">Container View: Conference Platform</tspan></text></g></g><!--z-index:20--><g   id="j_64"  transform="translate(199,144)" style=""><g  id="v-667" style="opacity: 1;"><rect  x="0" y="160" width="400" height="240" rx="70" id="v-669" stroke-width="2" pointer-events="visiblePainted" fill="#4f46e5" stroke="#473fce" stroke-dasharray="" style="fill: rgb(79, 70, 229); stroke: rgb(71, 63, 206);"></rect><circle  cx="200" cy="88.88888888888889" r="88.88888888888889" id="v-668" stroke-width="2" pointer-events="visiblePainted" fill="#4f46e5" stroke="#473fce" stroke-dasharray="" style="fill: rgb(79, 70, 229); stroke: rgb(71, 63, 206);"></circle><line  x1="80" y1="266.6666666666667" x2="80" y2="400" id="v-675" stroke="#473fce" stroke-width="1" stroke-dasharray="" style="stroke: rgb(71, 63, 206);"></line><line  x1="320" y1="266.6666666666667" x2="320" y2="400" id="v-676" stroke="#473fce" stroke-width="1" stroke-dasharray="" style="stroke: rgb(71, 63, 206);"></line><text  id="v-670" font-size="33.599999999999994px" xml:space="preserve" y="202.5" font-weight="bold" text-anchor="middle" pointer-events="visible" font-family="Tahoma, Verdana, Helvetica, Arial" fill="#ffffff" dominant-baseline="hanging" transform="matrix(1,0,0,1,200,0)" style="fill: rgb(255, 255, 255);"><tspan dy="0" >Attendee</tspan></text><text  id="v-671" font-size="16.799999999999997px" xml:space="preserve" y="244.1" text-anchor="middle" font-family="Tahoma, Verdana, Helvetica, Arial" fill="#ffffff" dominant-baseline="hanging" transform="matrix(1,0,0,1,200,0)" style="display: block; fill: rgb(255, 255, 255);"><tspan dy="0" >[Person]</tspan></text><text  id="v-672" font-size="24px" xml:space="preserve" y="275.9" text-anchor="middle" font-family="Tahoma, Verdana, Helvetica, Arial" fill="#ffffff" dominant-baseline="hanging" transform="matrix(1,0,0,1,200,0)" style="display: block; fill: rgb(255, 255, 255);"><tspan dy="0" >Browses sessions and checks</tspan><tspan dy="1.2em" x="0" >seat availability via the web</tspan><tspan dy="1.2em" x="0" >app.</tspan></text><g  id="v-673" font-weight="normal" text-anchor="middle" color="#ffffff" transform="matrix(1,0,0,1,197.5,368)" display="none" style="fill: rgb(255, 255, 255);"><g ></g><g ></g><g ></g><g ></g></g><image  id="v-674"></image></g></g><!--z-index:21--><g   id="j_65"  transform="translate(199,676)" style=""><g  id="v-680" style="opacity: 1;"><rect  x="0" y="160" width="400" height="240" rx="70" id="v-682" stroke-width="2" pointer-events="visiblePainted" fill="#4f46e5" stroke="#473fce" stroke-dasharray="" style="fill: rgb(79, 70, 229); stroke: rgb(71, 63, 206);"></rect><circle  cx="200" cy="88.88888888888889" r="88.88888888888889" id="v-681" stroke-width="2" pointer-events="visiblePainted" fill="#4f46e5" stroke="#473fce" stroke-dasharray="" style="fill: rgb(79, 70, 229); stroke: rgb(71, 63, 206);"></circle><line  x1="80" y1="266.6666666666667" x2="80" y2="400" id="v-688" stroke="#473fce" stroke-width="1" stroke-dasharray="" style="stroke: rgb(71, 63, 206);"></line><line  x1="320" y1="266.6666666666667" x2="320" y2="400" id="v-689" stroke="#473fce" stroke-width="1" stroke-dasharray="" style="stroke: rgb(71, 63, 206);"></line><text  id="v-683" font-size="33.599999999999994px" xml:space="preserve" y="202.5" font-weight="bold" text-anchor="middle" pointer-events="visible" font-family="Tahoma, Verdana, Helvetica, Arial" fill="#ffffff" dominant-baseline="hanging" transform="matrix(1,0,0,1,200,0)" style="fill: rgb(255, 255, 255);"><tspan dy="0" >Ops Team</tspan></text><text  id="v-684" font-size="16.799999999999997px" xml:space="preserve" y="244.1" text-anchor="middle" font-family="Tahoma, Verdana, Helvetica, Arial" fill="#ffffff" dominant-baseline="hanging" transform="matrix(1,0,0,1,200,0)" style="display: block; fill: rgb(255, 255, 255);"><tspan dy="0" >[Person]</tspan></text><text  id="v-685" font-size="24px" xml:space="preserve" y="275.9" text-anchor="middle" font-family="Tahoma, Verdana, Helvetica, Arial" fill="#ffffff" dominant-baseline="hanging" transform="matrix(1,0,0,1,200,0)" style="display: block; fill: rgb(255, 255, 255);"><tspan dy="0" >Manages conferences, tracks,</tspan><tspan dy="1.2em" x="0" >sessions and registrations via</tspan><tspan dy="1.2em" x="0" >admin.</tspan></text><g  id="v-686" font-weight="normal" text-anchor="middle" color="#ffffff" transform="matrix(1,0,0,1,197.5,368)" display="none" style="fill: rgb(255, 255, 255);"><g ></g><g ></g><g ></g><g ></g></g><image  id="v-687"></image></g></g><!--z-index:22--><g   id="j_67"  transform="translate(939,143)" style="; opacity: 1;"><g id="v-700"><rect  id="v-701" width="2130" height="937" rx="0" ry="0" stroke-width="2" pointer-events="none" stroke="#1b1844" fill="#111111" opacity="1" stroke-dasharray=""></rect><text  id="v-702" font-size="33.599999999999994px" xml:space="preserve" y="898" font-weight="bold" text-anchor="start" pointer-events="visible" font-family="Tahoma, Verdana, Helvetica, Arial" fill="#ffffff" transform="matrix(1,0,0,1,15,0)"><tspan dy="0" >Conference Platform</tspan></text><text  id="v-703" font-size="16.799999999999997px" xml:space="preserve" y="922" font-weight="normal" text-anchor="start" pointer-events="visible" font-family="Tahoma, Verdana, Helvetica, Arial" fill="#ffffff" transform="matrix(1,0,0,1,15,0)"><tspan dy="0" >[Software System]</tspan></text><image  id="v-704" pointer-events="visible"></image></g></g><!--z-index:23--><g   id="j_66"  transform="translate(989,419)" style=""><g  id="v-693" style="opacity: 1;"><rect  id="v-694" rx="1" ry="1" stroke-width="2" pointer-events="visiblePainted" fill="#059669" stroke="#05875f" stroke-dasharray="" width="450" height="300" style="fill: rgb(5, 150, 105); stroke: rgb(5, 135, 95);"></rect><text  id="v-695" font-size="33.599999999999994px" xml:space="preserve" y="72.5" font-weight="bold" text-anchor="middle" pointer-events="visible" font-family="Tahoma, Verdana, Helvetica, Arial" fill="#ffffff" dominant-baseline="hanging" transform="matrix(1,0,0,1,225,0)" style="fill: rgb(255, 255, 255);"><tspan dy="0" >Nginx 1.27</tspan></text><text  id="v-696" font-size="16.799999999999997px" xml:space="preserve" y="114.1" text-anchor="middle" font-family="Tahoma, Verdana, Helvetica, Arial" fill="#ffffff" dominant-baseline="hanging" transform="matrix(1,0,0,1,225,0)" style="display: block; fill: rgb(255, 255, 255);"><tspan dy="0" >[Container: Nginx]</tspan></text><text  id="v-697" font-size="24px" xml:space="preserve" y="145.89999999999998" text-anchor="middle" font-family="Tahoma, Verdana, Helvetica, Arial" fill="#ffffff" dominant-baseline="hanging" transform="matrix(1,0,0,1,225,0)" style="display: block; fill: rgb(255, 255, 255);"><tspan dy="0" >Reverse proxy. Routes /admin/ to</tspan><tspan dy="1.2em" x="0" >Django, /api/ to FastAPI, / to static</tspan><tspan dy="1.2em" x="0" >frontend. Hides server version.</tspan></text><g  id="v-698" color="#ffffff" transform="matrix(1,0,0,1,222.5,268)" display="none" style="fill: rgb(255, 255, 255);"><g ></g><g ></g><g ></g><g ></g></g><image  id="v-699"></image></g></g><!--z-index:24--><g   id="j_68"  transform="translate(1779,193)" style=""><g  id="v-711" style="opacity: 1;"><rect  id="v-712" rx="1" ry="1" stroke-width="2" pointer-events="visiblePainted" fill="#7c3aed" stroke="#7034d5" stroke-dasharray="" width="450" height="300" style="fill: rgb(124, 58, 237); stroke: rgb(112, 52, 213);"></rect><text  id="v-713" font-size="33.599999999999994px" xml:space="preserve" y="72.5" font-weight="bold" text-anchor="middle" pointer-events="visible" font-family="Tahoma, Verdana, Helvetica, Arial" fill="#ffffff" dominant-baseline="hanging" transform="matrix(1,0,0,1,225,0)" style="fill: rgb(255, 255, 255);"><tspan dy="0" >Django 5 + Gunicorn</tspan></text><text  id="v-714" font-size="16.799999999999997px" xml:space="preserve" y="114.1" text-anchor="middle" font-family="Tahoma, Verdana, Helvetica, Arial" fill="#ffffff" dominant-baseline="hanging" transform="matrix(1,0,0,1,225,0)" style="display: block; fill: rgb(255, 255, 255);"><tspan dy="0" >[Container: Python 3.12]</tspan></text><text  id="v-715" font-size="24px" xml:space="preserve" y="145.89999999999998" text-anchor="middle" font-family="Tahoma, Verdana, Helvetica, Arial" fill="#ffffff" dominant-baseline="hanging" transform="matrix(1,0,0,1,225,0)" style="display: block; fill: rgb(255, 255, 255);"><tspan dy="0" >Admin-only service. Runs</tspan><tspan dy="1.2em" x="0" >migrations, seeds data and creates</tspan><tspan dy="1.2em" x="0" >superuser on first start.</tspan></text><g  id="v-716" color="#ffffff" transform="matrix(1,0,0,1,222.5,268)" display="none" style="fill: rgb(255, 255, 255);"><g ></g><g ></g><g ></g><g ></g></g><image  id="v-717"></image></g></g><!--z-index:25--><g   id="j_69"  transform="translate(1779,594)" style=""><g  id="v-724" style="opacity: 1;"><rect  id="v-725" rx="1" ry="1" stroke-width="2" pointer-events="visiblePainted" fill="#2563eb" stroke="#2159d4" stroke-dasharray="" width="450" height="300" style="fill: rgb(37, 99, 235); stroke: rgb(33, 89, 212);"></rect><text  id="v-726" font-size="33.599999999999994px" xml:space="preserve" y="52.34" font-weight="bold" text-anchor="middle" pointer-events="visible" font-family="Tahoma, Verdana, Helvetica, Arial" fill="#ffffff" dominant-baseline="hanging" transform="matrix(1,0,0,1,225,0)" style="fill: rgb(255, 255, 255);"><tspan dy="0" >FastAPI +</tspan><tspan dy="1.2em" x="0" >Gunicorn/Uvicorn</tspan></text><text  id="v-727" font-size="16.799999999999997px" xml:space="preserve" y="134.26" text-anchor="middle" font-family="Tahoma, Verdana, Helvetica, Arial" fill="#ffffff" dominant-baseline="hanging" transform="matrix(1,0,0,1,225,0)" style="display: block; fill: rgb(255, 255, 255);"><tspan dy="0" >[Container: Python 3.12]</tspan></text><text  id="v-728" font-size="24px" xml:space="preserve" y="166.06" text-anchor="middle" font-family="Tahoma, Verdana, Helvetica, Arial" fill="#ffffff" dominant-baseline="hanging" transform="matrix(1,0,0,1,225,0)" style="display: block; fill: rgb(255, 255, 255);"><tspan dy="0" >Public read-only API. Capacity</tspan><tspan dy="1.2em" x="0" >enforcement, timezone-aware day</tspan><tspan dy="1.2em" x="0" >filtering, Redis caching.</tspan></text><g  id="v-729" color="#ffffff" transform="matrix(1,0,0,1,210,268)" display="none" style="fill: rgb(255, 255, 255);"><g  transform="translate(5 0)"><svg xmlns="http://www.w3.org/2000/svg" width="20" height="20" fill="currentColor" viewBox="0 0 16 16"><path fill-rule="evenodd" d="M6.5 12a5.5 5.5 0 1 0 0-11 5.5 5.5 0 0 0 0 11zM13 6.5a6.5 6.5 0 1 1-13 0 6.5 6.5 0 0 1 13 0z"></path><path d="M10.344 11.742c.03.04.062.078.098.115l3.85 3.85a1 1 0 0 0 1.415-1.414l-3.85-3.85a1.007 1.007 0 0 0-.115-.1 6.538 6.538 0 0 1-1.398 1.4z"></path><path fill-rule="evenodd" d="M6.5 3a.5.5 0 0 1 .5.5V6h2.5a.5.5 0 0 1 0 1H7v2.5a.5.5 0 0 1-1 0V7H3.5a.5.5 0 0 1 0-1H6V3.5a.5.5 0 0 1 .5-.5z"></path></svg></g><g ></g><g ></g><g ></g></g><image  id="v-730"></image></g></g><!--z-index:26--><g   id="j_70"  transform="translate(2569,244)" style=""><g  id="v-734" style="opacity: 1;"><path  d="M 0,30 a 225,30 0,0,0 450 0 a 225,30 0,0,0 -450 0 l 0,240 a 225,30 0,0,0 450 0 l 0,-240" id="v-735" stroke-width="2" pointer-events="visiblePainted" fill="#0891b2" stroke="#0783a0" stroke-dasharray="" style="fill: rgb(8, 145, 178); stroke: rgb(7, 131, 160);"></path><rect  id="v-736" stroke-width="0" pointer-events="visiblePainted" fill="none" stroke="none" width="450" height="270" x="0" y="30"></rect><text  id="v-737" font-size="33.599999999999994px" xml:space="preserve" y="87.5" font-weight="bold" text-anchor="middle" pointer-events="visible" font-family="Tahoma, Verdana, Helvetica, Arial" fill="#ffffff" dominant-baseline="hanging" transform="matrix(1,0,0,1,225,0)" style="fill: rgb(255, 255, 255);"><tspan dy="0" >PostgreSQL 16</tspan></text><text  id="v-738" font-size="16.799999999999997px" xml:space="preserve" y="129.1" text-anchor="middle" font-family="Tahoma, Verdana, Helvetica, Arial" fill="#ffffff" dominant-baseline="hanging" transform="matrix(1,0,0,1,225,0)" style="display: block; fill: rgb(255, 255, 255);"><tspan dy="0" >[Container: PostgreSQL 16]</tspan></text><text  id="v-739" font-size="24px" xml:space="preserve" y="160.89999999999998" text-anchor="middle" font-family="Tahoma, Verdana, Helvetica, Arial" fill="#ffffff" dominant-baseline="hanging" transform="matrix(1,0,0,1,225,0)" style="display: block; fill: rgb(255, 255, 255);"><tspan dy="0" >All domain data in the content</tspan><tspan dy="1.2em" x="0" >schema. UUID PKs, TIMESTAMPTZ</tspan><tspan dy="1.2em" x="0" >columns, GIN index for search.</tspan></text><g  id="v-740" font-weight="normal" text-anchor="middle" color="#ffffff" transform="matrix(1,0,0,1,222.5,268)" display="none" style="fill: rgb(255, 255, 255);"><g ></g><g ></g><g ></g><g ></g></g><image  id="v-741"></image></g></g><!--z-index:27--><g   id="j_71"  transform="translate(2569,651)" style=""><g  id="v-745" style="opacity: 1;"><path  d="M 0,30 a 225,30 0,0,0 450 0 a 225,30 0,0,0 -450 0 l 0,240 a 225,30 0,0,0 450 0 l 0,-240" id="v-746" stroke-width="2" pointer-events="visiblePainted" fill="#d97706" stroke="#c36b05" stroke-dasharray="" style="fill: rgb(217, 119, 6); stroke: rgb(195, 107, 5);"></path><rect  id="v-747" stroke-width="0" pointer-events="visiblePainted" fill="none" stroke="none" width="450" height="270" x="0" y="30"></rect><text  id="v-748" font-size="33.599999999999994px" xml:space="preserve" y="73.10000000000001" font-weight="bold" text-anchor="middle" pointer-events="visible" font-family="Tahoma, Verdana, Helvetica, Arial" fill="#ffffff" dominant-baseline="hanging" transform="matrix(1,0,0,1,225,0)" style="fill: rgb(255, 255, 255);"><tspan dy="0" >Redis 7</tspan></text><text  id="v-749" font-size="16.799999999999997px" xml:space="preserve" y="114.7" text-anchor="middle" font-family="Tahoma, Verdana, Helvetica, Arial" fill="#ffffff" dominant-baseline="hanging" transform="matrix(1,0,0,1,225,0)" style="display: block; fill: rgb(255, 255, 255);"><tspan dy="0" >[Container: Redis 7]</tspan></text><text  id="v-750" font-size="24px" xml:space="preserve" y="146.5" text-anchor="middle" font-family="Tahoma, Verdana, Helvetica, Arial" fill="#ffffff" dominant-baseline="hanging" transform="matrix(1,0,0,1,225,0)" style="display: block; fill: rgb(255, 255, 255);"><tspan dy="0" >TTL=60s cache for list and detail</tspan><tspan dy="1.2em" x="0" >responses. Non-critical — API</tspan><tspan dy="1.2em" x="0" >degrades gracefully when</tspan><tspan dy="1.2em" x="0" >unreachable.</tspan></text><g  id="v-751" font-weight="normal" text-anchor="middle" color="#ffffff" transform="matrix(1,0,0,1,222.5,268)" display="none" style="fill: rgb(255, 255, 255);"><g ></g><g ></g><g ></g><g ></g></g><image  id="v-752"></image></g></g><!--z-index:28--><g   id="j_72"  style="opacity: 1;"><path fill="none" cursor="pointer" stroke="transparent" stroke-linecap="round" joint-selector="wrapper" id="v-767" stroke-width="10" stroke-linejoin="round" d="M 599 344 L 929 344 C 935.6666666666666 344 941.6666666666666 346 947 350 L 1030.67 419"></path><path fill="none" pointer-events="none" joint-selector="line" id="v-766" stroke="#cccccc" stroke-width="2" stroke-linejoin="round" stroke-dasharray="8 8" d="M 599 344 L 929 344 C 935.6666666666666 344 941.6666666666666 346 947 350 L 1030.67 419" marker-end="url(#v-2-527367903)"></path><g id="v-756" ><g id="v-757"  label-idx="0" cursor="move" transform="matrix(1,0,0,1,768.750244140625,330.6000061035156)" style="cursor: default;"><rect joint-selector="rect" id="v-761" fill="#111111" rx="3" ry="3" x="-91.19723510742188" y="-17.643301010131836" width="184.08905029296875" height="31.054126739501953" pointer-events="none"  style="display: block;"></rect><text joint-selector="text" id="v-760" font-size="24px" xml:space="preserve" fill="#cccccc" text-anchor="middle" pointer-events="none" font-family="Tahoma, Verdana, Helvetica, Arial" font-weight="normal"  style="display: block;"><tspan dy="0.3em" >Browses sessions</tspan></text></g><g id="v-758"  label-idx="1" cursor="move" transform="matrix(1,0,0,1,768.750244140625,361)" style="cursor: default;"><rect joint-selector="rect" id="v-763" fill="#111111" rx="3" ry="3" x="-45.51370620727539" y="-10.487064361572266" width="91.02741241455078" height="18.632476806640625"  pointer-events="none" style="display: block;"></rect><text joint-selector="text" id="v-762" font-size="16.799999999999997px" xml:space="preserve" fill="#cccccc" text-anchor="middle" pointer-events="none" font-family="Tahoma, Verdana, Helvetica, Arial" font-weight="normal"  style="display: block;"><tspan dy="0.3em" >[HTTPS :80]</tspan></text></g><g id="v-759"  label-idx="2" cursor="move" transform="matrix(1,0,0,1,817.8826904296875,369.3999938964844)" style="cursor: default;"><rect joint-selector="rect" id="v-765" fill="#ffffff" rx="3" ry="3" x="0" y="0" width="0" height="0"  display="none"></rect><text joint-selector="text" id="v-764" fill="#000000" font-size="14" text-anchor="middle" text-vertical-anchor="middle" pointer-events="none"></text></g></g></g><!--z-index:29--><g   id="j_73"  style="opacity: 1;"><path fill="none" cursor="pointer" stroke="transparent" stroke-linecap="round" joint-selector="wrapper" id="v-785" stroke-width="10" stroke-linejoin="round" d="M 599 876.22 L 929 877 C 935.6666666666666 876.7333333333333 941.3333333333333 874.0666666666666 946 869 L 1079.9 719"></path><path fill="none" pointer-events="none" joint-selector="line" id="v-784" stroke="#cccccc" stroke-width="2" stroke-linejoin="round" stroke-dasharray="8 8" d="M 599 876.22 L 929 877 C 935.6666666666666 876.7333333333333 941.3333333333333 874.0666666666666 946 869 L 1079.9 719" marker-end="url(#v-2-527367903)"></path><g id="v-774" ><g id="v-775"  label-idx="0" cursor="move" transform="matrix(1,0,0,1,768.6860961914062,863.2210693359375)" style="cursor: default;"><rect joint-selector="rect" id="v-779" fill="#111111" rx="3" ry="3" x="-87.89773559570312" y="-32.043304443359375" width="172.6900634765625" height="59.854129791259766" pointer-events="none"  style="display: block;"></rect><text joint-selector="text" id="v-778" font-size="24px" xml:space="preserve" fill="#cccccc" text-anchor="middle" pointer-events="none" font-family="Tahoma, Verdana, Helvetica, Arial" font-weight="normal"  style="display: block;"><tspan dy="-0.3em" >Manages</tspan><tspan dy="1.2em" x="0" >conference data</tspan></text></g><g id="v-776"  label-idx="1" cursor="move" transform="matrix(1,0,0,1,768.6860961914062,908.0210571289062)" style="cursor: default;"><rect joint-selector="rect" id="v-781" fill="#111111" rx="3" ry="3" x="-77.19861602783203" y="-10.487064361572266" width="154.39723205566406" height="18.632476806640625"  pointer-events="none" style="display: block;"></rect><text joint-selector="text" id="v-780" font-size="16.799999999999997px" xml:space="preserve" fill="#cccccc" text-anchor="middle" pointer-events="none" font-family="Tahoma, Verdana, Helvetica, Arial" font-weight="normal"  style="display: block;"><tspan dy="0.3em" >[HTTPS :80 /admin/]</tspan></text></g><g id="v-777"  label-idx="2" cursor="move" transform="matrix(1,0,0,1,864.1907348632812,916.6704711914062)" style="cursor: default;"><rect joint-selector="rect" id="v-783" fill="#ffffff" rx="3" ry="3" x="0" y="0" width="0" height="0"  display="none"></rect><text joint-selector="text" id="v-782" fill="#000000" font-size="14" text-anchor="middle" text-vertical-anchor="middle" pointer-events="none"></text></g></g></g><!--z-index:30--><g   id="j_74"  style="opacity: 1;"><path fill="none" cursor="pointer" stroke="transparent" stroke-linecap="round" joint-selector="wrapper" id="v-800" stroke-width="10" stroke-linejoin="round" d="M 1439 440.61 L 1600 349 C 1605.9999999999998 345.4 1612.333333333333 343.73333333333335 1619 344 L 1779 343.34"></path><path fill="none" pointer-events="none" joint-selector="line" id="v-799" stroke="#cccccc" stroke-width="2" stroke-linejoin="round" stroke-dasharray="8 8" d="M 1439 440.61 L 1600 349 C 1605.9999999999998 345.4 1612.333333333333 343.73333333333335 1619 344 L 1779 343.34" marker-end="url(#v-2-527367903)"></path><g id="v-789" ><g id="v-790"  label-idx="0" cursor="move" transform="matrix(1,0,0,1,1609.361328125,331.62091064453125)" style="cursor: default;"><rect joint-selector="rect" id="v-794" fill="#111111" rx="3" ry="3" x="-82.948486328125" y="-32.043304443359375" width="169.10549926757812" height="59.854129791259766" pointer-events="none"  style="display: block;"></rect><text joint-selector="text" id="v-793" font-size="24px" xml:space="preserve" fill="#cccccc" text-anchor="middle" pointer-events="none" font-family="Tahoma, Verdana, Helvetica, Arial" font-weight="normal"  style="display: block;"><tspan dy="-0.3em" >Proxies /admin/</tspan><tspan dy="1.2em" x="0" >and /static/</tspan></text></g><g id="v-791"  label-idx="1" cursor="move" transform="matrix(1,0,0,1,1609.361328125,376.4208984375)" style="cursor: default;"><rect joint-selector="rect" id="v-796" fill="#111111" rx="3" ry="3" x="-26.104875564575195" y="-10.487064361572266" width="52.20975112915039" height="18.632476806640625"  pointer-events="none" style="display: block;"></rect><text joint-selector="text" id="v-795" font-size="16.799999999999997px" xml:space="preserve" fill="#cccccc" text-anchor="middle" pointer-events="none" font-family="Tahoma, Verdana, Helvetica, Arial" font-weight="normal"  style="display: block;"><tspan dy="0.3em" >[HTTP]</tspan></text></g><g id="v-792"  label-idx="2" cursor="move" transform="matrix(1,0,0,1,1587.6937255859375,390.1122741699219)" style="cursor: default;"><rect joint-selector="rect" id="v-798" fill="#ffffff" rx="3" ry="3" x="0" y="0" width="0" height="0"  display="none"></rect><text joint-selector="text" id="v-797" fill="#000000" font-size="14" text-anchor="middle" text-vertical-anchor="middle" pointer-events="none"></text></g></g></g><!--z-index:31--><g   id="j_75"  style="opacity: 1;"><path fill="none" cursor="pointer" stroke="transparent" stroke-linecap="round" joint-selector="wrapper" id="v-815" stroke-width="10" stroke-linejoin="round" d="M 1439 668.68 L 1600 740 C 1605.9999999999998 742.6666666666666 1612.333333333333 744 1619 744 L 1779 744"></path><path fill="none" pointer-events="none" joint-selector="line" id="v-814" stroke="#cccccc" stroke-width="2" stroke-linejoin="round" stroke-dasharray="8 8" d="M 1439 668.68 L 1600 740 C 1605.9999999999998 742.6666666666666 1612.333333333333 744 1619 744 L 1779 744" marker-end="url(#v-2-527367903)"></path><g id="v-804" ><g id="v-805"  label-idx="0" cursor="move" transform="matrix(1,0,0,1,1609.212890625,729.5921630859375)" style="cursor: default;"><rect joint-selector="rect" id="v-809" fill="#111111" rx="3" ry="3" x="-66.1841049194336" y="-17.643301010131836" width="135.60313415527344" height="31.054126739501953" pointer-events="none"  style="display: block;"></rect><text joint-selector="text" id="v-808" font-size="24px" xml:space="preserve" fill="#cccccc" text-anchor="middle" pointer-events="none" font-family="Tahoma, Verdana, Helvetica, Arial" font-weight="normal"  style="display: block;"><tspan dy="0.3em" >Proxies /api/</tspan></text></g><g id="v-806"  label-idx="1" cursor="move" transform="matrix(1,0,0,1,1609.212890625,759.9921875)" style="cursor: default;"><rect joint-selector="rect" id="v-811" fill="#111111" rx="3" ry="3" x="-26.104875564575195" y="-10.487064361572266" width="52.20975112915039" height="18.632476806640625"  pointer-events="none" style="display: block;"></rect><text joint-selector="text" id="v-810" font-size="16.799999999999997px" xml:space="preserve" fill="#cccccc" text-anchor="middle" pointer-events="none" font-family="Tahoma, Verdana, Helvetica, Arial" font-weight="normal"  style="display: block;"><tspan dy="0.3em" >[HTTP]</tspan></text></g><g id="v-807"  label-idx="2" cursor="move" transform="matrix(1,0,0,1,1591.5897216796875,766.0722045898438)" style="cursor: default;"><rect joint-selector="rect" id="v-813" fill="#ffffff" rx="3" ry="3" x="0" y="-1.1368683772161603e-13" width="0" height="0"  display="none"></rect><text joint-selector="text" id="v-812" fill="#000000" font-size="14" text-anchor="middle" text-vertical-anchor="middle" pointer-events="none"></text></g></g></g><!--z-index:32--><g   id="j_76"  style="opacity: 1;"><path fill="none" cursor="pointer" stroke="transparent" stroke-linecap="round" joint-selector="wrapper" id="v-830" stroke-width="10" stroke-linejoin="round" d="M 2229 343.34 L 2389 344 C 2395.6666666666665 343.73333333333335 2402.333333333333 344.06666666666666 2409 345 L 2569 365.29"></path><path fill="none" pointer-events="none" joint-selector="line" id="v-829" stroke="#cccccc" stroke-width="2" stroke-linejoin="round" stroke-dasharray="8 8" d="M 2229 343.34 L 2389 344 C 2395.6666666666665 343.73333333333335 2402.333333333333 344.06666666666666 2409 345 L 2569 365.29" marker-end="url(#v-2-527367903)"></path><g id="v-819" ><g id="v-820"  label-idx="0" cursor="move" transform="matrix(1,0,0,1,2398.9609375,330.6480407714844)" style="cursor: default;"><rect joint-selector="rect" id="v-824" fill="#111111" rx="3" ry="3" x="-66.52376556396484" y="-17.643301010131836" width="135.9459686279297" height="31.054126739501953" pointer-events="none"  style="display: block;"></rect><text joint-selector="text" id="v-823" font-size="24px" xml:space="preserve" fill="#cccccc" text-anchor="middle" pointer-events="none" font-family="Tahoma, Verdana, Helvetica, Arial" font-weight="normal"  style="display: block;"><tspan dy="0.3em" >Read / Write</tspan></text></g><g id="v-821"  label-idx="1" cursor="move" transform="matrix(1,0,0,1,2398.9609375,361.0480651855469)" style="cursor: default;"><rect joint-selector="rect" id="v-826" fill="#111111" rx="3" ry="3" x="-41.19524002075195" y="-10.487064361572266" width="82.3904800415039" height="18.632476806640625"  pointer-events="none" style="display: block;"></rect><text joint-selector="text" id="v-825" font-size="16.799999999999997px" xml:space="preserve" fill="#cccccc" text-anchor="middle" pointer-events="none" font-family="Tahoma, Verdana, Helvetica, Arial" font-weight="normal"  style="display: block;"><tspan dy="0.3em" >[psycopg3]</tspan></text></g><g id="v-822"  label-idx="2" cursor="move" transform="matrix(1,0,0,1,2389.6640625,369.4851989746094)" style="cursor: default;"><rect joint-selector="rect" id="v-828" fill="#ffffff" rx="3" ry="3" x="0" y="0" width="0" height="0"  display="none"></rect><text joint-selector="text" id="v-827" fill="#000000" font-size="14" text-anchor="middle" text-vertical-anchor="middle" pointer-events="none"></text></g></g></g><!--z-index:33--><g   id="j_77"  style="opacity: 1;"><path fill="none" cursor="pointer" stroke="transparent" stroke-linecap="round" joint-selector="wrapper" id="v-845" stroke-width="10" stroke-linejoin="round" d="M 2229 644.32 L 2569 493.68"></path><path fill="none" pointer-events="none" joint-selector="line" id="v-844" stroke="#cccccc" stroke-width="2" stroke-linejoin="round" stroke-dasharray="8 8" d="M 2229 644.32 L 2569 493.68" marker-end="url(#v-2-527367903)"></path><g id="v-834" ><g id="v-835"  label-idx="0" cursor="move" transform="matrix(1,0,0,1,2399,555.5999755859375)" style="cursor: default;"><rect joint-selector="rect" id="v-839" fill="#111111" rx="3" ry="3" x="-52.112709045410156" y="-17.643301010131836" width="107.78150177001953" height="31.054126739501953" pointer-events="none"  style="display: block;"></rect><text joint-selector="text" id="v-838" font-size="24px" xml:space="preserve" fill="#cccccc" text-anchor="middle" pointer-events="none" font-family="Tahoma, Verdana, Helvetica, Arial" font-weight="normal"  style="display: block;"><tspan dy="0.3em" >Read only</tspan></text></g><g id="v-836"  label-idx="1" cursor="move" transform="matrix(1,0,0,1,2399,586)" style="cursor: default;"><rect joint-selector="rect" id="v-841" fill="#111111" rx="3" ry="3" x="-90.66349792480469" y="-10.487064361572266" width="181.32699584960938" height="18.632476806640625"  pointer-events="none" style="display: block;"></rect><text joint-selector="text" id="v-840" font-size="16.799999999999997px" xml:space="preserve" fill="#cccccc" text-anchor="middle" pointer-events="none" font-family="Tahoma, Verdana, Helvetica, Arial" font-weight="normal"  style="display: block;"><tspan dy="0.3em" >[asyncpg / SQLAlchemy]</tspan></text></g><g id="v-837"  label-idx="2" cursor="move" transform="matrix(1,0,0,1,2389,594.4000244140625)" style="cursor: default;"><rect joint-selector="rect" id="v-843" fill="#ffffff" rx="3" ry="3" x="-4.547473508864641e-13" y="0" width="0" height="0"  display="none"></rect><text joint-selector="text" id="v-842" fill="#000000" font-size="14" text-anchor="middle" text-vertical-anchor="middle" pointer-events="none"></text></g></g></g><!--z-index:34--><g   id="j_78"  style="opacity: 1;"><path fill="none" cursor="pointer" stroke="transparent" stroke-linecap="round" joint-selector="wrapper" id="v-863" stroke-width="10" stroke-linejoin="round" d="M 2229 776.81 L 2389 800 C 2395.6666666666665 801.0666666666666 2402.333333333333 801.7333333333333 2409 802 L 2569 801.34"></path><path fill="none" pointer-events="none" joint-selector="line" id="v-862" stroke="#cccccc" stroke-width="2" stroke-linejoin="round" stroke-dasharray="8 8" d="M 2229 776.81 L 2389 800 C 2395.6666666666665 801.0666666666666 2402.333333333333 801.7333333333333 2409 802 L 2569 801.34" marker-end="url(#v-2-527367903)"></path><g id="v-852" ><g id="v-853"  label-idx="0" cursor="move" transform="matrix(1,0,0,1,2399.0390625,787.9039306640625)" style="cursor: default;"><rect joint-selector="rect" id="v-857" fill="#111111" rx="3" ry="3" x="-65.8201904296875" y="-32.043304443359375" width="134.8890380859375" height="59.854129791259766" pointer-events="none"  style="display: block;"></rect><text joint-selector="text" id="v-856" font-size="24px" xml:space="preserve" fill="#cccccc" text-anchor="middle" pointer-events="none" font-family="Tahoma, Verdana, Helvetica, Arial" font-weight="normal"  style="display: block;"><tspan dy="-0.3em" >Cache GET /</tspan><tspan dy="1.2em" x="0" >SETEX</tspan></text></g><g id="v-854"  label-idx="1" cursor="move" transform="matrix(1,0,0,1,2399.0390625,832.7039184570312)" style="cursor: default;"><rect joint-selector="rect" id="v-859" fill="#111111" rx="3" ry="3" x="-59.43954086303711" y="-10.487064361572266" width="118.87908172607422" height="18.632476806640625"  pointer-events="none" style="display: block;"></rect><text joint-selector="text" id="v-858" font-size="16.799999999999997px" xml:space="preserve" fill="#cccccc" text-anchor="middle" pointer-events="none" font-family="Tahoma, Verdana, Helvetica, Arial" font-weight="normal"  style="display: block;"><tspan dy="0.3em" >[redis-py async]</tspan></text></g><g id="v-855"  label-idx="2" cursor="move" transform="matrix(1,0,0,1,2388.140625,841.0118408203125)" style="cursor: default;"><rect joint-selector="rect" id="v-861" fill="#ffffff" rx="3" ry="3" x="0" y="1.1368683772161603e-13" width="0" height="0"  display="none"></rect><text joint-selector="text" id="v-860" fill="#000000" font-size="14" text-anchor="middle" text-vertical-anchor="middle" pointer-events="none"></text></g></g></g><!--z-index:35--></g><g  style="user-select: none;"></g><g ></g><g  display="none"></g></g></svg>