<svg xmlns="http://www.w3.org/2000/svg" xmlns:xlink="http://www.w3.org/1999/xlink" contentStyleType="text/css" data-diagram-type="CLASS" height="899px" preserveAspectRatio="none" style="width:607px;height:899px;background:#FFFFFF;" version="1.1" viewBox="0 0 607 899" width="607px" zoomAndPan="magnify"><?plantuml 1.2026.4beta2?><defs/><g><!--class conference--><g class="entity" data-qualified-name="conference" data-source-line="13" id="ent0002"><rect fill="#F1F1F1" height="178.375" rx="2.5" ry="2.5" style="stroke:#181818;stroke-width:0.5;" width="286.8389" x="284.11" y="7"/><ellipse cx="355.1388" cy="23" fill="#ADD1B2" rx="11" ry="11" style="stroke:#181818;stroke-width:1;"/><path d="M359.2482,29 L351.5294,29 L351.5294,16.6094 L359.2482,16.6094 L359.2482,18.7656 L353.9826,18.7656 L353.9826,21.4375 L358.7482,21.4375 L358.7482,23.5938 L353.9826,23.5938 L353.9826,26.8438 L359.2482,26.8438 L359.2482,29 Z " fill="#000000"/><text fill="#000000" font-family="sans-serif" font-size="14" lengthAdjust="spacing" textLength="136.2813" x="375.6388" y="27.8467">content.conference</text><line style="stroke:#181818;stroke-width:0.5;" x1="285.11" x2="569.9489" y1="39" y2="39"/><g data-visibility-modifier="IE_MANDATORY"><ellipse cx="295.11" cy="52.6484" fill="#000000" rx="3" ry="3" style="stroke:#000000;stroke-width:1;"/></g><text fill="#000000" font-family="sans-serif" font-size="14" lengthAdjust="spacing" textLength="145.5029" x="304.11" y="55.9951">id           : UUID &#171;PK&#187;</text><line style="stroke:#181818;stroke-width:1;" x1="285.11" x2="569.9489" y1="63.2969" y2="63.2969"/><g data-visibility-modifier="IE_MANDATORY"><ellipse cx="295.11" cy="76.9453" fill="#000000" rx="3" ry="3" style="stroke:#000000;stroke-width:1;"/></g><text fill="#000000" font-family="sans-serif" font-size="14" lengthAdjust="spacing" textLength="195.0566" x="304.11" y="80.292">name         : VARCHAR(200)</text><g data-visibility-modifier="IE_MANDATORY"><ellipse cx="295.11" cy="93.2422" fill="#000000" rx="3" ry="3" style="stroke:#000000;stroke-width:1;"/></g><text fill="#000000" font-family="sans-serif" font-size="14" lengthAdjust="spacing" textLength="260.8389" x="304.11" y="96.5889">slug         : VARCHAR(100) &#171;UNIQUE&#187;</text><g data-visibility-modifier="IE_MANDATORY"><ellipse cx="295.11" cy="109.5391" fill="#000000" rx="3" ry="3" style="stroke:#000000;stroke-width:1;"/></g><text fill="#000000" font-family="sans-serif" font-size="14" lengthAdjust="spacing" textLength="187.2227" x="304.11" y="112.8857">starts_at    : TIMESTAMPTZ</text><g data-visibility-modifier="IE_MANDATORY"><ellipse cx="295.11" cy="125.8359" fill="#000000" rx="3" ry="3" style="stroke:#000000;stroke-width:1;"/></g><text fill="#000000" font-family="sans-serif" font-size="14" lengthAdjust="spacing" textLength="189.8887" x="304.11" y="129.1826">ends_at      : TIMESTAMPTZ</text><g data-visibility-modifier="IE_MANDATORY"><ellipse cx="295.11" cy="142.1328" fill="#000000" rx="3" ry="3" style="stroke:#000000;stroke-width:1;"/></g><text fill="#000000" font-family="sans-serif" font-size="14" lengthAdjust="spacing" textLength="193.6758" x="304.11" y="145.4795">timezone     : VARCHAR(50)</text><g data-visibility-modifier="IE_MANDATORY"><ellipse cx="295.11" cy="158.4297" fill="#000000" rx="3" ry="3" style="stroke:#000000;stroke-width:1;"/></g><text fill="#000000" font-family="sans-serif" font-size="14" lengthAdjust="spacing" textLength="188.7881" x="304.11" y="161.7764">created      : TIMESTAMPTZ</text><g data-visibility-modifier="IE_MANDATORY"><ellipse cx="295.11" cy="174.7266" fill="#000000" rx="3" ry="3" style="stroke:#000000;stroke-width:1;"/></g><text fill="#000000" font-family="sans-serif" font-size="14" lengthAdjust="spacing" textLength="192.001" x="304.11" y="178.0732">modified     : TIMESTAMPTZ</text></g><!--class track--><g class="entity" data-qualified-name="track" data-source-line="25" id="ent0003"><rect fill="#F1F1F1" height="162.0781" rx="2.5" ry="2.5" style="stroke:#181818;stroke-width:0.5;" width="229.957" x="312.55" y="245.37"/><ellipse cx="376.4387" cy="261.37" fill="#ADD1B2" rx="11" ry="11" style="stroke:#181818;stroke-width:1;"/><path d="M380.548,267.37 L372.8293,267.37 L372.8293,254.9794 L380.548,254.9794 L380.548,257.1356 L375.2824,257.1356 L375.2824,259.8075 L380.048,259.8075 L380.048,261.9638 L375.2824,261.9638 L375.2824,265.2138 L380.548,265.2138 L380.548,267.37 Z " fill="#000000"/><text fill="#000000" font-family="sans-serif" font-size="14" lengthAdjust="spacing" textLength="93.6797" x="396.9387" y="266.2167">content.track</text><line style="stroke:#181818;stroke-width:0.5;" x1="313.55" x2="541.507" y1="277.37" y2="277.37"/><g data-visibility-modifier="IE_MANDATORY"><ellipse cx="323.55" cy="291.0184" fill="#000000" rx="3" ry="3" style="stroke:#000000;stroke-width:1;"/></g><text fill="#000000" font-family="sans-serif" font-size="14" lengthAdjust="spacing" textLength="154.4033" x="332.55" y="294.3651">id             : UUID &#171;PK&#187;</text><line style="stroke:#181818;stroke-width:1;" x1="313.55" x2="541.507" y1="301.6669" y2="301.6669"/><g data-visibility-modifier="IE_MANDATORY"><ellipse cx="323.55" cy="315.3153" fill="#000000" rx="3" ry="3" style="stroke:#000000;stroke-width:1;"/></g><text fill="#000000" font-family="sans-serif" font-size="14" lengthAdjust="spacing" textLength="190.292" x="332.55" y="318.662">conference_id  : UUID &#171;FK&#187;</text><g data-visibility-modifier="IE_MANDATORY"><ellipse cx="323.55" cy="331.6122" fill="#000000" rx="3" ry="3" style="stroke:#000000;stroke-width:1;"/></g><text fill="#000000" font-family="sans-serif" font-size="14" lengthAdjust="spacing" textLength="203.957" x="332.55" y="334.9589">name           : VARCHAR(100)</text><text fill="#000000" font-family="sans-serif" font-size="14" lengthAdjust="spacing" textLength="176.4629" x="332.55" y="351.2557">color          : VARCHAR(7)</text><text fill="#000000" font-family="sans-serif" font-size="14" lengthAdjust="spacing" textLength="140.3486" x="332.55" y="367.5526">description    : TEXT</text><g data-visibility-modifier="IE_MANDATORY"><ellipse cx="323.55" cy="380.5028" fill="#000000" rx="3" ry="3" style="stroke:#000000;stroke-width:1;"/></g><text fill="#000000" font-family="sans-serif" font-size="14" lengthAdjust="spacing" textLength="197.6885" x="332.55" y="383.8495">created        : TIMESTAMPTZ</text><g data-visibility-modifier="IE_MANDATORY"><ellipse cx="323.55" cy="396.7997" fill="#000000" rx="3" ry="3" style="stroke:#000000;stroke-width:1;"/></g><text fill="#000000" font-family="sans-serif" font-size="14" lengthAdjust="spacing" textLength="200.9014" x="332.55" y="400.1464">modified       : TIMESTAMPTZ</text></g><!--class speaker--><g class="entity" data-qualified-name="speaker" data-source-line="36" id="ent0004"><rect fill="#F1F1F1" height="145.7813" rx="2.5" ry="2.5" style="stroke:#181818;stroke-width:0.5;" width="221.0566" x="7" y="500.04"/><ellipse cx="56.3281" cy="516.04" fill="#ADD1B2" rx="11" ry="11" style="stroke:#181818;stroke-width:1;"/><path d="M60.4375,522.04 L52.7188,522.04 L52.7188,509.6494 L60.4375,509.6494 L60.4375,511.8056 L55.1719,511.8056 L55.1719,514.4775 L59.9375,514.4775 L59.9375,516.6338 L55.1719,516.6338 L55.1719,519.8838 L60.4375,519.8838 L60.4375,522.04 Z " fill="#000000"/><text fill="#000000" font-family="sans-serif" font-size="14" lengthAdjust="spacing" textLength="113.9004" x="76.8281" y="520.8867">content.speaker</text><line style="stroke:#181818;stroke-width:0.5;" x1="8" x2="227.0566" y1="532.04" y2="532.04"/><g data-visibility-modifier="IE_MANDATORY"><ellipse cx="18" cy="545.6884" fill="#000000" rx="3" ry="3" style="stroke:#000000;stroke-width:1;"/></g><text fill="#000000" font-family="sans-serif" font-size="14" lengthAdjust="spacing" textLength="145.5029" x="27" y="549.0351">id           : UUID &#171;PK&#187;</text><line style="stroke:#181818;stroke-width:1;" x1="8" x2="227.0566" y1="556.3369" y2="556.3369"/><g data-visibility-modifier="IE_MANDATORY"><ellipse cx="18" cy="569.9853" fill="#000000" rx="3" ry="3" style="stroke:#000000;stroke-width:1;"/></g><text fill="#000000" font-family="sans-serif" font-size="14" lengthAdjust="spacing" textLength="195.0566" x="27" y="573.332">name         : VARCHAR(200)</text><text fill="#000000" font-family="sans-serif" font-size="14" lengthAdjust="spacing" textLength="189.7041" x="27" y="589.6289">affiliation  : VARCHAR(200)</text><text fill="#000000" font-family="sans-serif" font-size="14" lengthAdjust="spacing" textLength="110.5508" x="27" y="605.9257">bio          : TEXT</text><g data-visibility-modifier="IE_MANDATORY"><ellipse cx="18" cy="618.8759" fill="#000000" rx="3" ry="3" style="stroke:#000000;stroke-width:1;"/></g><text fill="#000000" font-family="sans-serif" font-size="14" lengthAdjust="spacing" textLength="188.7881" x="27" y="622.2226">created      : TIMESTAMPTZ</text><g data-visibility-modifier="IE_MANDATORY"><ellipse cx="18" cy="635.1728" fill="#000000" rx="3" ry="3" style="stroke:#000000;stroke-width:1;"/></g><text fill="#000000" font-family="sans-serif" font-size="14" lengthAdjust="spacing" textLength="192.001" x="27" y="638.5195">modified     : TIMESTAMPTZ</text></g><!--class session--><g class="entity" data-qualified-name="session" data-source-line="46" id="ent0005"><rect fill="#F1F1F1" height="210.9688" rx="2.5" ry="2.5" style="stroke:#181818;stroke-width:0.5;" width="329.748" x="262.65" y="467.45"/><ellipse cx="368.337" cy="483.45" fill="#ADD1B2" rx="11" ry="11" style="stroke:#181818;stroke-width:1;"/><path d="M372.4464,489.45 L364.7276,489.45 L364.7276,477.0594 L372.4464,477.0594 L372.4464,479.2156 L367.1808,479.2156 L367.1808,481.8875 L371.9464,481.8875 L371.9464,484.0438 L367.1808,484.0438 L367.1808,487.2938 L372.4464,487.2938 L372.4464,489.45 Z " fill="#000000"/><text fill="#000000" font-family="sans-serif" font-size="14" lengthAdjust="spacing" textLength="109.874" x="388.837" y="488.2967">content.session</text><line style="stroke:#181818;stroke-width:0.5;" x1="263.65" x2="591.398" y1="499.45" y2="499.45"/><g data-visibility-modifier="IE_MANDATORY"><ellipse cx="273.65" cy="513.0984" fill="#000000" rx="3" ry="3" style="stroke:#000000;stroke-width:1;"/></g><text fill="#000000" font-family="sans-serif" font-size="14" lengthAdjust="spacing" textLength="158.8535" x="282.65" y="516.4451">id              : UUID &#171;PK&#187;</text><line style="stroke:#181818;stroke-width:1;" x1="263.65" x2="591.398" y1="523.7469" y2="523.7469"/><g data-visibility-modifier="IE_MANDATORY"><ellipse cx="273.65" cy="537.3953" fill="#000000" rx="3" ry="3" style="stroke:#000000;stroke-width:1;"/></g><text fill="#000000" font-family="sans-serif" font-size="14" lengthAdjust="spacing" textLength="174.3916" x="282.65" y="540.742">track_id        : UUID &#171;FK&#187;</text><g data-visibility-modifier="IE_MANDATORY"><ellipse cx="273.65" cy="553.6922" fill="#000000" rx="3" ry="3" style="stroke:#000000;stroke-width:1;"/></g><text fill="#000000" font-family="sans-serif" font-size="14" lengthAdjust="spacing" textLength="191.625" x="282.65" y="557.0389">title           : VARCHAR(300)</text><text fill="#000000" font-family="sans-serif" font-size="14" lengthAdjust="spacing" textLength="138.0791" x="282.65" y="573.3357">abstract        : TEXT</text><g data-visibility-modifier="IE_MANDATORY"><ellipse cx="273.65" cy="586.2859" fill="#000000" rx="3" ry="3" style="stroke:#000000;stroke-width:1;"/></g><text fill="#000000" font-family="sans-serif" font-size="14" lengthAdjust="spacing" textLength="200.5732" x="282.65" y="589.6326">starts_at       : TIMESTAMPTZ</text><g data-visibility-modifier="IE_MANDATORY"><ellipse cx="273.65" cy="602.5828" fill="#000000" rx="3" ry="3" style="stroke:#000000;stroke-width:1;"/></g><text fill="#000000" font-family="sans-serif" font-size="14" lengthAdjust="spacing" textLength="203.2393" x="282.65" y="605.9295">ends_at         : TIMESTAMPTZ</text><text fill="#000000" font-family="sans-serif" font-size="14" lengthAdjust="spacing" textLength="165.293" x="282.65" y="622.2264">capacity        : INTEGER</text><text fill="#000000" font-family="sans-serif" font-size="14" lengthAdjust="spacing" textLength="303.748" x="282.65" y="638.5232">search_vector   : TSVECTOR &#171;GENERATED&#187;</text><g data-visibility-modifier="IE_MANDATORY"><ellipse cx="273.65" cy="651.4734" fill="#000000" rx="3" ry="3" style="stroke:#000000;stroke-width:1;"/></g><text fill="#000000" font-family="sans-serif" font-size="14" lengthAdjust="spacing" textLength="202.1387" x="282.65" y="654.8201">created         : TIMESTAMPTZ</text><g data-visibility-modifier="IE_MANDATORY"><ellipse cx="273.65" cy="667.7703" fill="#000000" rx="3" ry="3" style="stroke:#000000;stroke-width:1;"/></g><text fill="#000000" font-family="sans-serif" font-size="14" lengthAdjust="spacing" textLength="205.3516" x="282.65" y="671.117">modified        : TIMESTAMPTZ</text></g><!--class session_speaker--><g class="entity" data-qualified-name="session_speaker" data-source-line="60" id="ent0006"><rect fill="#F1F1F1" height="129.4844" rx="2.5" ry="2.5" style="stroke:#181818;stroke-width:0.5;" width="213.5508" x="38.75" y="746.57"/><ellipse cx="57.7222" cy="762.57" fill="#ADD1B2" rx="11" ry="11" style="stroke:#181818;stroke-width:1;"/><path d="M61.8316,768.57 L54.1128,768.57 L54.1128,756.1794 L61.8316,756.1794 L61.8316,758.3356 L56.566,758.3356 L56.566,761.0075 L61.3316,761.0075 L61.3316,763.1638 L56.566,763.1638 L56.566,766.4138 L61.8316,766.4138 L61.8316,768.57 Z " fill="#000000"/><text fill="#000000" font-family="sans-serif" font-size="14" lengthAdjust="spacing" textLength="172.7236" x="72.6049" y="767.4167">content.session_speaker</text><line style="stroke:#181818;stroke-width:0.5;" x1="39.75" x2="251.3008" y1="778.57" y2="778.57"/><g data-visibility-modifier="IE_MANDATORY"><ellipse cx="49.75" cy="792.2184" fill="#000000" rx="3" ry="3" style="stroke:#000000;stroke-width:1;"/></g><text fill="#000000" font-family="sans-serif" font-size="14" lengthAdjust="spacing" textLength="141.0527" x="58.75" y="795.5651">id          : UUID &#171;PK&#187;</text><line style="stroke:#181818;stroke-width:1;" x1="39.75" x2="251.3008" y1="802.8669" y2="802.8669"/><g data-visibility-modifier="IE_MANDATORY"><ellipse cx="49.75" cy="816.5153" fill="#000000" rx="3" ry="3" style="stroke:#000000;stroke-width:1;"/></g><text fill="#000000" font-family="sans-serif" font-size="14" lengthAdjust="spacing" textLength="163.8848" x="58.75" y="819.862">session_id  : UUID &#171;FK&#187;</text><g data-visibility-modifier="IE_MANDATORY"><ellipse cx="49.75" cy="832.8122" fill="#000000" rx="3" ry="3" style="stroke:#000000;stroke-width:1;"/></g><text fill="#000000" font-family="sans-serif" font-size="14" lengthAdjust="spacing" textLength="167.9111" x="58.75" y="836.1589">speaker_id  : UUID &#171;FK&#187;</text><g data-visibility-modifier="IE_MANDATORY"><ellipse cx="49.75" cy="849.1091" fill="#000000" rx="3" ry="3" style="stroke:#000000;stroke-width:1;"/></g><text fill="#000000" font-family="sans-serif" font-size="14" lengthAdjust="spacing" textLength="184.3379" x="58.75" y="852.4557">created     : TIMESTAMPTZ</text><g data-visibility-modifier="IE_MANDATORY"><ellipse cx="49.75" cy="865.4059" fill="#000000" rx="3" ry="3" style="stroke:#000000;stroke-width:1;"/></g><text fill="#000000" font-family="sans-serif" font-size="14" lengthAdjust="spacing" textLength="187.5508" x="58.75" y="868.7526">modified    : TIMESTAMPTZ</text></g><!--class registration--><g class="entity" data-qualified-name="registration" data-source-line="69" id="ent0007"><rect fill="#F1F1F1" height="145.7813" rx="2.5" ry="2.5" style="stroke:#181818;stroke-width:0.5;" width="226.3477" x="314.35" y="738.42"/><ellipse cx="354.1971" cy="754.42" fill="#ADD1B2" rx="11" ry="11" style="stroke:#181818;stroke-width:1;"/><path d="M358.3065,760.42 L350.5877,760.42 L350.5877,748.0294 L358.3065,748.0294 L358.3065,750.1856 L353.0409,750.1856 L353.0409,752.8575 L357.8065,752.8575 L357.8065,755.0138 L353.0409,755.0138 L353.0409,758.2638 L358.3065,758.2638 L358.3065,760.42 Z " fill="#000000"/><text fill="#000000" font-family="sans-serif" font-size="14" lengthAdjust="spacing" textLength="139.1318" x="373.7187" y="759.2667">content.registration</text><line style="stroke:#181818;stroke-width:0.5;" x1="315.35" x2="539.6977" y1="770.42" y2="770.42"/><g data-visibility-modifier="IE_MANDATORY"><ellipse cx="325.35" cy="784.0684" fill="#000000" rx="3" ry="3" style="stroke:#000000;stroke-width:1;"/></g><text fill="#000000" font-family="sans-serif" font-size="14" lengthAdjust="spacing" textLength="141.0527" x="334.35" y="787.4151">id          : UUID &#171;PK&#187;</text><line style="stroke:#181818;stroke-width:1;" x1="315.35" x2="539.6977" y1="794.7169" y2="794.7169"/><g data-visibility-modifier="IE_MANDATORY"><ellipse cx="325.35" cy="808.3653" fill="#000000" rx="3" ry="3" style="stroke:#000000;stroke-width:1;"/></g><text fill="#000000" font-family="sans-serif" font-size="14" lengthAdjust="spacing" textLength="163.8848" x="334.35" y="811.712">session_id  : UUID &#171;FK&#187;</text><g data-visibility-modifier="IE_MANDATORY"><ellipse cx="325.35" cy="824.6622" fill="#000000" rx="3" ry="3" style="stroke:#000000;stroke-width:1;"/></g><text fill="#000000" font-family="sans-serif" font-size="14" lengthAdjust="spacing" textLength="200.3477" x="334.35" y="828.0089">user_email  : VARCHAR(254)</text><g data-visibility-modifier="IE_MANDATORY"><ellipse cx="325.35" cy="840.9591" fill="#000000" rx="3" ry="3" style="stroke:#000000;stroke-width:1;"/></g><text fill="#000000" font-family="sans-serif" font-size="14" lengthAdjust="spacing" textLength="176.1143" x="334.35" y="844.3057">status      : VARCHAR(20)</text><g data-visibility-modifier="IE_MANDATORY"><ellipse cx="325.35" cy="857.2559" fill="#000000" rx="3" ry="3" style="stroke:#000000;stroke-width:1;"/></g><text fill="#000000" font-family="sans-serif" font-size="14" lengthAdjust="spacing" textLength="184.3379" x="334.35" y="860.6026">created     : TIMESTAMPTZ</text><g data-visibility-modifier="IE_MANDATORY"><ellipse cx="325.35" cy="873.5528" fill="#000000" rx="3" ry="3" style="stroke:#000000;stroke-width:1;"/></g><text fill="#000000" font-family="sans-serif" font-size="14" lengthAdjust="spacing" textLength="187.5508" x="334.35" y="876.8995">modified    : TIMESTAMPTZ</text></g><!--link conference to track--><g class="link" data-entity-1="ent0002" data-entity-2="ent0003" data-link-type="crowfoot" data-source-line="79" id="lnk8"><path codeLine="79" d="M427.53,193.86 C427.53,213.3 427.53,207.76 427.53,226.87" fill="none" id="conference-track" style="stroke:#1D4ED8;stroke-width:1.5;"/><line style="stroke:#1D4ED8;stroke-width:1.5;" x1="423.53" x2="431.53" y1="189.86" y2="189.86"/><line style="stroke:#1D4ED8;stroke-width:1.5;" x1="423.53" x2="431.53" y1="192.86" y2="192.86"/><line style="stroke:#1D4ED8;stroke-width:1.5;" x1="427.53" x2="427.53" y1="193.86" y2="185.86"/><line style="stroke:#1D4ED8;stroke-width:1.5;" x1="427.53" x2="433.53" y1="236.87" y2="244.87"/><line style="stroke:#1D4ED8;stroke-width:1.5;" x1="427.53" x2="421.53" y1="236.87" y2="244.87"/><line style="stroke:#1D4ED8;stroke-width:1.5;" x1="427.53" x2="427.53" y1="236.87" y2="244.87"/><ellipse cx="427.53" cy="230.87" fill="none" rx="4" ry="4" style="stroke:#1D4ED8;stroke-width:1.5;"/><text fill="#000000" font-family="sans-serif" font-size="13" lengthAdjust="spacing" textLength="59.2046" x="367.53" y="211.4269">1 tiene N</text></g><!--link track to session--><g class="link" data-entity-1="ent0003" data-entity-2="ent0005" data-link-type="crowfoot" data-source-line="80" id="lnk9"><path codeLine="80" d="M427.53,415.82 C427.53,434.75 427.53,429.18 427.53,449" fill="none" id="track-session" style="stroke:#1D4ED8;stroke-width:1.5;"/><line style="stroke:#1D4ED8;stroke-width:1.5;" x1="423.53" x2="431.53" y1="411.82" y2="411.82"/><line style="stroke:#1D4ED8;stroke-width:1.5;" x1="423.53" x2="431.53" y1="414.82" y2="414.82"/><line style="stroke:#1D4ED8;stroke-width:1.5;" x1="427.53" x2="427.53" y1="415.82" y2="407.82"/><line style="stroke:#1D4ED8;stroke-width:1.5;" x1="427.53" x2="433.53" y1="459" y2="467"/><line style="stroke:#1D4ED8;stroke-width:1.5;" x1="427.53" x2="421.53" y1="459" y2="467"/><line style="stroke:#1D4ED8;stroke-width:1.5;" x1="427.53" x2="427.53" y1="459" y2="467"/><ellipse cx="427.53" cy="453" fill="none" rx="4" ry="4" style="stroke:#1D4ED8;stroke-width:1.5;"/><text fill="#000000" font-family="sans-serif" font-size="13" lengthAdjust="spacing" textLength="59.2046" x="367.53" y="433.4769">1 tiene N</text></g><!--link session to session_speaker--><g class="link" data-entity-1="ent0005" data-entity-2="ent0006" data-link-type="crowfoot" data-source-line="81" id="lnk10"><path codeLine="81" d="M254.41,662.2 C240.83,662.2 240.18,662.2 240.18,662.2 C240.18,662.2 240.18,688.16 240.18,728.34" fill="none" id="session-session_speaker" style="stroke:#1D4ED8;stroke-width:1.5;"/><line style="stroke:#1D4ED8;stroke-width:1.5;" x1="258.41" x2="258.41" y1="658.2" y2="666.2"/><line style="stroke:#1D4ED8;stroke-width:1.5;" x1="255.41" x2="255.41" y1="658.2" y2="666.2"/><line style="stroke:#1D4ED8;stroke-width:1.5;" x1="254.41" x2="262.41" y1="662.2" y2="662.2"/><line style="stroke:#1D4ED8;stroke-width:1.5;" x1="240.18" x2="246.18" y1="738.34" y2="746.34"/><line style="stroke:#1D4ED8;stroke-width:1.5;" x1="240.18" x2="234.18" y1="738.34" y2="746.34"/><line style="stroke:#1D4ED8;stroke-width:1.5;" x1="240.18" x2="240.18" y1="738.34" y2="746.34"/><ellipse cx="240.18" cy="732.34" fill="none" rx="4" ry="4" style="stroke:#1D4ED8;stroke-width:1.5;"/><text fill="#000000" font-family="sans-serif" font-size="13" lengthAdjust="spacing" textLength="59.2046" x="180.18" y="689.2269">1 tiene N</text></g><!--link speaker to session_speaker--><g class="link" data-entity-1="ent0004" data-entity-2="ent0006" data-link-type="crowfoot" data-source-line="82" id="lnk11"><path codeLine="82" d="M133.4,654.07 C133.4,686.1 133.4,697.37 133.4,728.39" fill="none" id="speaker-session_speaker" style="stroke:#1D4ED8;stroke-width:1.5;"/><line style="stroke:#1D4ED8;stroke-width:1.5;" x1="129.4" x2="137.4" y1="650.07" y2="650.07"/><line style="stroke:#1D4ED8;stroke-width:1.5;" x1="129.4" x2="137.4" y1="653.07" y2="653.07"/><line style="stroke:#1D4ED8;stroke-width:1.5;" x1="133.4" x2="133.4" y1="654.07" y2="646.07"/><line style="stroke:#1D4ED8;stroke-width:1.5;" x1="133.4" x2="139.4" y1="738.39" y2="746.39"/><line style="stroke:#1D4ED8;stroke-width:1.5;" x1="133.4" x2="127.4" y1="738.39" y2="746.39"/><line style="stroke:#1D4ED8;stroke-width:1.5;" x1="133.4" x2="133.4" y1="738.39" y2="746.39"/><ellipse cx="133.4" cy="732.39" fill="none" rx="4" ry="4" style="stroke:#1D4ED8;stroke-width:1.5;"/><text fill="#000000" font-family="sans-serif" font-size="13" lengthAdjust="spacing" textLength="59.2046" x="73.4" y="692.2969">1 tiene N</text></g><!--link session to registration--><g class="link" data-entity-1="ent0005" data-entity-2="ent0007" data-link-type="crowfoot" data-source-line="83" id="lnk12"><path codeLine="83" d="M427.53,686.88 C427.53,706.9 427.53,701.42 427.53,720.15" fill="none" id="session-registration" style="stroke:#1D4ED8;stroke-width:1.5;"/><line style="stroke:#1D4ED8;stroke-width:1.5;" x1="423.53" x2="431.53" y1="682.88" y2="682.88"/><line style="stroke:#1D4ED8;stroke-width:1.5;" x1="423.53" x2="431.53" y1="685.88" y2="685.88"/><line style="stroke:#1D4ED8;stroke-width:1.5;" x1="427.53" x2="427.53" y1="686.88" y2="678.88"/><line style="stroke:#1D4ED8;stroke-width:1.5;" x1="427.53" x2="433.53" y1="730.15" y2="738.15"/><line style="stroke:#1D4ED8;stroke-width:1.5;" x1="427.53" x2="421.53" y1="730.15" y2="738.15"/><line style="stroke:#1D4ED8;stroke-width:1.5;" x1="427.53" x2="427.53" y1="730.15" y2="738.15"/><ellipse cx="427.53" cy="724.15" fill="none" rx="4" ry="4" style="stroke:#1D4ED8;stroke-width:1.5;"/><text fill="#000000" font-family="sans-serif" font-size="13" lengthAdjust="spacing" textLength="59.2046" x="367.53" y="704.5769">1 tiene N</text></g><?plantuml-src hLLTRzem57tFhx3eovX4LRgoJLDLYO5fKLNMGQYclI2JNC0YsCWsdVhrt-SaJh13Gfc6Np2-vzxhStmko2LbQoB82ar9i9mBlc5XXqTSe9DUiZoP8u0fgfxGYuVq-bw0f-i4ztgVTLA2u284OKSJHBDxWRjV4yGD48qeLjf5z3XJJXTpjNWVnqRq6L3pt7kpBjiMWlzn2nQ2_e86ImPIekPfomf6b85wMWFYGYsuvndQjK1tqljJ_Ja30Io06Y8IRRyQPJuY6bg4lw7nkDz5bvVtjrTN2Q3HC3X6Lc3X7jh3parx-E7yxAnk43BQp4iGJOtG5SU3_iynDbKrM16Xv8Ie5Eptx_38Rz_T-xyD05YOXSi1YgxWcJCej6lbzma440LXTOKL3-cC6eGBUDkLKWdzzecAoQvSmBqIRjMVn4avidURo-AeN5JHImy3rwLRp9SC4O8C15qhofcXXd_vPQeSeCi1oiWra2M8H1kpFxgz42Ap6OqeIKcL8gQKsxsgIF-_5QGUH7sDb72whxB3Fiw9ZoOqt85QXj2Det97VBAacSgubYhbxapQ8SDMYj6s8siIn3BacFx0nzTuQE8IY0WMaqS8L69FNMFqW3l-Zw5cT8q7UDZsSJSdLl3X8KOy-64cZYFTizA7slD8MNhLn9gobN6RvtiSt-KdO4xZfrQP--o3OpFRI4qBLeH6phorBkfRPwcDt1tP-Z6eMtzLUhs-DXhy1PcVNcSUQaqz9A3_1mOrpmrdITc8LYIvuK9IRfjYKdRyJqcbdPmttBdUNm00?></g></svg>