<svg xmlns="http://www.w3.org/2000/svg" xmlns:xlink="http://www.w3.org/1999/xlink" contentStyleType="text/css" data-diagram-type="CLASS" height="1224px" preserveAspectRatio="none" style="width:680px;height:1224px;background:#FFFFFF;" version="1.1" viewBox="0 0 680 1224" width="680px" zoomAndPan="magnify"><?plantuml 1.2026.4beta2?><defs/><g><!--class Base--><g class="entity" data-qualified-name="Base" data-source-line="20" id="ent0002"><rect fill="#EFF6FF" height="102.8281" rx="2.5" ry="2.5" style="stroke:#1D4ED8;stroke-width:0.5;" width="193.2139" x="269.06" y="7"/><rect fill="#1D4ED8" height="37.9375" rx="2.5" ry="2.5" style="stroke:#1D4ED8;stroke-width:0.5;" width="193.2139" x="269.06" y="7"/><rect fill="#1D4ED8" height="2.5" style="stroke:#1D4ED8;stroke-width:0.5;" width="193.2139" x="269.06" y="42.4375"/><rect fill="none" height="102.8281" rx="2.5" ry="2.5" style="stroke:#1D4ED8;stroke-width:0.5;" width="193.2139" x="269.06" y="7"/><ellipse cx="331.3163" cy="25.9688" fill="#A9DCDF" rx="11" ry="11" style="stroke:#181818;stroke-width:1;"/><path d="M331.4257,21.3125 L330.2695,26.3906 L332.5976,26.3906 L331.4257,21.3125 Z M329.9413,19.0781 L332.9257,19.0781 L336.2851,31.4688 L333.832,31.4688 L333.0663,28.4063 L329.7851,28.4063 L329.0351,31.4688 L326.5976,31.4688 L329.9413,19.0781 Z " fill="#000000"/><text fill="#000000" font-family="sans-serif" font-size="12" font-style="italic" lengthAdjust="spacing" textLength="64.2012" x="349.8163" y="23.1387">&#171;abstract&#187;</text><text fill="#000000" font-family="sans-serif" font-size="12" font-style="italic" lengthAdjust="spacing" textLength="29.2207" x="367.3066" y="37.1074">Base</text><line style="stroke:#1D4ED8;stroke-width:0.5;" x1="270.06" x2="461.2739" y1="44.9375" y2="44.9375"/><text fill="#000000" font-family="sans-serif" font-size="14" lengthAdjust="spacing" textLength="99.9619" x="275.06" y="61.9326">+UUID         id</text><text fill="#000000" font-family="sans-serif" font-size="14" lengthAdjust="spacing" textLength="173.5508" x="275.06" y="78.2295">+TIMESTAMPTZ  created</text><text fill="#000000" font-family="sans-serif" font-size="14" lengthAdjust="spacing" textLength="181.2139" x="275.06" y="94.5264">+TIMESTAMPTZ  modified</text><line style="stroke:#1D4ED8;stroke-width:0.5;" x1="270.06" x2="461.2739" y1="101.8281" y2="101.8281"/></g><!--class Conference--><g class="entity" data-qualified-name="Conference" data-source-line="26" id="ent0003"><rect fill="#EFF6FF" height="129.4844" rx="2.5" ry="2.5" style="stroke:#1D4ED8;stroke-width:0.5;" width="199.3389" x="7" y="169.82"/><rect fill="#1D4ED8" height="32" rx="2.5" ry="2.5" style="stroke:#1D4ED8;stroke-width:0.5;" width="199.3389" x="7" y="169.82"/><rect fill="#1D4ED8" height="2.5" style="stroke:#1D4ED8;stroke-width:0.5;" width="199.3389" x="7" y="199.32"/><rect fill="none" height="129.4844" rx="2.5" ry="2.5" style="stroke:#1D4ED8;stroke-width:0.5;" width="199.3389" x="7" y="169.82"/><ellipse cx="68.0015" cy="185.82" fill="#ADD1B2" rx="11" ry="11" style="stroke:#181818;stroke-width:1;"/><path d="M70.9702,191.4606 Q70.3921,191.7575 69.7515,191.8981 Q69.1108,192.0544 68.4077,192.0544 Q65.9077,192.0544 64.5796,190.4137 Q63.2671,188.7575 63.2671,185.6325 Q63.2671,182.5075 64.5796,180.8512 Q65.9077,179.195 68.4077,179.195 Q69.1108,179.195 69.7515,179.3512 Q70.4077,179.5075 70.9702,179.8044 L70.9702,182.5231 Q70.3452,181.945 69.7515,181.6794 Q69.1577,181.3981 68.5327,181.3981 Q67.189,181.3981 66.5015,182.4762 Q65.814,183.5387 65.814,185.6325 Q65.814,187.7262 66.5015,188.8044 Q67.189,189.8669 68.5327,189.8669 Q69.1577,189.8669 69.7515,189.6012 Q70.3452,189.32 70.9702,188.7419 L70.9702,191.4606 Z " fill="#000000"/><text fill="#000000" font-family="sans-serif" font-size="12" lengthAdjust="spacing" textLength="68.8359" x="88.5015" y="189.9743">Conference</text><line style="stroke:#1D4ED8;stroke-width:0.5;" x1="8" x2="205.3389" y1="201.82" y2="201.82"/><text fill="#000000" font-family="sans-serif" font-size="14" lengthAdjust="spacing" textLength="185.3359" x="13" y="218.8151">+TIMESTAMPTZ   starts_at</text><text fill="#000000" font-family="sans-serif" font-size="14" lengthAdjust="spacing" textLength="179.1016" x="13" y="235.112">+TIMESTAMPTZ   ends_at</text><line style="stroke:#1D4ED8;stroke-width:0.5;" x1="8" x2="205.3389" y1="242.4137" y2="242.4137"/><text fill="#000000" font-family="sans-serif" font-size="14" lengthAdjust="spacing" textLength="166.4688" x="13" y="259.4089">+VARCHAR(200)  name</text><text fill="#000000" font-family="sans-serif" font-size="14" lengthAdjust="spacing" textLength="155.709" x="13" y="275.7057">+VARCHAR(100)  slug</text><text fill="#000000" font-family="sans-serif" font-size="14" lengthAdjust="spacing" textLength="187.3389" x="13" y="292.0026">+VARCHAR(50)   timezone</text></g><!--class Track--><g class="entity" data-qualified-name="Track" data-source-line="34" id="ent0004"><rect fill="#EFF6FF" height="113.1875" rx="2.5" ry="2.5" style="stroke:#1D4ED8;stroke-width:0.5;" width="197.1924" x="80.07" y="359.31"/><rect fill="#1D4ED8" height="32" rx="2.5" ry="2.5" style="stroke:#1D4ED8;stroke-width:0.5;" width="197.1924" x="80.07" y="359.31"/><rect fill="#1D4ED8" height="2.5" style="stroke:#1D4ED8;stroke-width:0.5;" width="197.1924" x="80.07" y="388.81"/><rect fill="none" height="113.1875" rx="2.5" ry="2.5" style="stroke:#1D4ED8;stroke-width:0.5;" width="197.1924" x="80.07" y="359.31"/><ellipse cx="157.8342" cy="375.31" fill="#ADD1B2" rx="11" ry="11" style="stroke:#181818;stroke-width:1;"/><path d="M160.8029,380.9506 Q160.2248,381.2475 159.5842,381.3881 Q158.9435,381.5444 158.2404,381.5444 Q155.7404,381.5444 154.4123,379.9038 Q153.0998,378.2475 153.0998,375.1225 Q153.0998,371.9975 154.4123,370.3413 Q155.7404,368.685 158.2404,368.685 Q158.9435,368.685 159.5842,368.8413 Q160.2404,368.9975 160.8029,369.2944 L160.8029,372.0131 Q160.1779,371.435 159.5842,371.1694 Q158.9904,370.8881 158.3654,370.8881 Q157.0217,370.8881 156.3342,371.9663 Q155.6467,373.0288 155.6467,375.1225 Q155.6467,377.2163 156.3342,378.2944 Q157.0217,379.3569 158.3654,379.3569 Q158.9904,379.3569 159.5842,379.0913 Q160.1779,378.81 160.8029,378.2319 L160.8029,380.9506 Z " fill="#000000"/><text fill="#000000" font-family="sans-serif" font-size="12" lengthAdjust="spacing" textLength="33.1641" x="178.3342" y="379.4643">Track</text><line style="stroke:#1D4ED8;stroke-width:0.5;" x1="81.07" x2="276.2624" y1="391.31" y2="391.31"/><text fill="#000000" font-family="sans-serif" font-size="14" lengthAdjust="spacing" textLength="185.1924" x="86.07" y="408.3051">+UUID         conference_id</text><text fill="#000000" font-family="sans-serif" font-size="14" lengthAdjust="spacing" textLength="165.1631" x="86.07" y="424.602">+TEXT         description</text><line style="stroke:#1D4ED8;stroke-width:0.5;" x1="81.07" x2="276.2624" y1="431.9038" y2="431.9038"/><text fill="#000000" font-family="sans-serif" font-size="14" lengthAdjust="spacing" textLength="162.0186" x="86.07" y="448.8989">+VARCHAR(100) name</text><text fill="#000000" font-family="sans-serif" font-size="14" lengthAdjust="spacing" textLength="147.875" x="86.07" y="465.1957">+VARCHAR(7)   color</text></g><!--class Session--><g class="entity" data-qualified-name="Session" data-source-line="41" id="ent0005"><rect fill="#EFF6FF" height="162.0781" rx="2.5" ry="2.5" style="stroke:#1D4ED8;stroke-width:0.5;" width="219.1357" x="99.1" y="532.5"/><rect fill="#1D4ED8" height="32" rx="2.5" ry="2.5" style="stroke:#1D4ED8;stroke-width:0.5;" width="219.1357" x="99.1" y="532.5"/><rect fill="#1D4ED8" height="2.5" style="stroke:#1D4ED8;stroke-width:0.5;" width="219.1357" x="99.1" y="562"/><rect fill="none" height="162.0781" rx="2.5" ry="2.5" style="stroke:#1D4ED8;stroke-width:0.5;" width="219.1357" x="99.1" y="532.5"/><ellipse cx="181.5253" cy="548.5" fill="#ADD1B2" rx="11" ry="11" style="stroke:#181818;stroke-width:1;"/><path d="M184.494,554.1406 Q183.9159,554.4375 183.2753,554.5781 Q182.6347,554.7344 181.9315,554.7344 Q179.4315,554.7344 178.1034,553.0938 Q176.7909,551.4375 176.7909,548.3125 Q176.7909,545.1875 178.1034,543.5313 Q179.4315,541.875 181.9315,541.875 Q182.6347,541.875 183.2753,542.0313 Q183.9315,542.1875 184.494,542.4844 L184.494,545.2031 Q183.869,544.625 183.2753,544.3594 Q182.6815,544.0781 182.0565,544.0781 Q180.7128,544.0781 180.0253,545.1563 Q179.3378,546.2188 179.3378,548.3125 Q179.3378,550.4063 180.0253,551.4844 Q180.7128,552.5469 182.0565,552.5469 Q182.6815,552.5469 183.2753,552.2813 Q183.869,552 184.494,551.4219 L184.494,554.1406 Z " fill="#000000"/><text fill="#000000" font-family="sans-serif" font-size="12" lengthAdjust="spacing" textLength="45.7852" x="202.0253" y="552.6543">Session</text><line style="stroke:#1D4ED8;stroke-width:0.5;" x1="100.1" x2="317.2357" y1="564.5" y2="564.5"/><text fill="#000000" font-family="sans-serif" font-size="14" lengthAdjust="spacing" textLength="142.5908" x="105.1" y="581.4951">+UUID         track_id</text><text fill="#000000" font-family="sans-serif" font-size="14" lengthAdjust="spacing" textLength="145.0928" x="105.1" y="597.792">+TEXT         abstract</text><text fill="#000000" font-family="sans-serif" font-size="14" lengthAdjust="spacing" textLength="180.8857" x="105.1" y="614.0889">+TIMESTAMPTZ  starts_at</text><text fill="#000000" font-family="sans-serif" font-size="14" lengthAdjust="spacing" textLength="174.6514" x="105.1" y="630.3857">+TIMESTAMPTZ  ends_at</text><text fill="#000000" font-family="sans-serif" font-size="14" lengthAdjust="spacing" textLength="158.9561" x="105.1" y="646.6826">+INTEGER      capacity</text><text fill="#000000" font-family="sans-serif" font-size="14" lengthAdjust="spacing" textLength="207.1357" x="105.1" y="662.9795">+TSVECTOR     search_vector</text><line style="stroke:#1D4ED8;stroke-width:0.5;" x1="100.1" x2="317.2357" y1="670.2813" y2="670.2813"/><text fill="#000000" font-family="sans-serif" font-size="14" lengthAdjust="spacing" textLength="149.6865" x="105.1" y="687.2764">+VARCHAR(300) title</text></g><!--class Speaker--><g class="entity" data-qualified-name="Speaker" data-source-line="51" id="ent0006"><rect fill="#EFF6FF" height="96.8906" rx="2.5" ry="2.5" style="stroke:#1D4ED8;stroke-width:0.5;" width="199.8174" x="336.76" y="1113.06"/><rect fill="#1D4ED8" height="32" rx="2.5" ry="2.5" style="stroke:#1D4ED8;stroke-width:0.5;" width="199.8174" x="336.76" y="1113.06"/><rect fill="#1D4ED8" height="2.5" style="stroke:#1D4ED8;stroke-width:0.5;" width="199.8174" x="336.76" y="1142.56"/><rect fill="none" height="96.8906" rx="2.5" ry="2.5" style="stroke:#1D4ED8;stroke-width:0.5;" width="199.8174" x="336.76" y="1113.06"/><ellipse cx="407.8005" cy="1129.06" fill="#ADD1B2" rx="11" ry="11" style="stroke:#181818;stroke-width:1;"/><path d="M410.7693,1134.7006 Q410.1912,1134.9975 409.5505,1135.1381 Q408.9099,1135.2944 408.2068,1135.2944 Q405.7068,1135.2944 404.3787,1133.6538 Q403.0662,1131.9975 403.0662,1128.8725 Q403.0662,1125.7475 404.3787,1124.0913 Q405.7068,1122.435 408.2068,1122.435 Q408.9099,1122.435 409.5505,1122.5913 Q410.2068,1122.7475 410.7693,1123.0444 L410.7693,1125.7631 Q410.1443,1125.185 409.5505,1124.9194 Q408.9568,1124.6381 408.3318,1124.6381 Q406.988,1124.6381 406.3005,1125.7163 Q405.613,1126.7788 405.613,1128.8725 Q405.613,1130.9663 406.3005,1132.0444 Q406.988,1133.1069 408.3318,1133.1069 Q408.9568,1133.1069 409.5505,1132.8413 Q410.1443,1132.56 410.7693,1131.9819 L410.7693,1134.7006 Z " fill="#000000"/><text fill="#000000" font-family="sans-serif" font-size="12" lengthAdjust="spacing" textLength="49.2363" x="428.3005" y="1133.2143">Speaker</text><line style="stroke:#1D4ED8;stroke-width:0.5;" x1="337.76" x2="535.5774" y1="1145.06" y2="1145.06"/><text fill="#000000" font-family="sans-serif" font-size="14" lengthAdjust="spacing" textLength="108.6641" x="342.76" y="1162.0551">+TEXT         bio</text><line style="stroke:#1D4ED8;stroke-width:0.5;" x1="337.76" x2="535.5774" y1="1169.3569" y2="1169.3569"/><text fill="#000000" font-family="sans-serif" font-size="14" lengthAdjust="spacing" textLength="162.0186" x="342.76" y="1186.352">+VARCHAR(200) name</text><text fill="#000000" font-family="sans-serif" font-size="14" lengthAdjust="spacing" textLength="187.8174" x="342.76" y="1202.6489">+VARCHAR(200) affiliation</text></g><!--class SessionSpeaker--><g class="entity" data-qualified-name="SessionSpeaker" data-source-line="57" id="ent0007"><rect fill="#EFF6FF" height="80.5938" rx="2.5" ry="2.5" style="stroke:#1D4ED8;stroke-width:0.5;" width="139.21" x="526.06" y="911.47"/><rect fill="#1D4ED8" height="32" rx="2.5" ry="2.5" style="stroke:#1D4ED8;stroke-width:0.5;" width="139.21" x="526.06" y="911.47"/><rect fill="#1D4ED8" height="2.5" style="stroke:#1D4ED8;stroke-width:0.5;" width="139.21" x="526.06" y="940.97"/><rect fill="none" height="80.5938" rx="2.5" ry="2.5" style="stroke:#1D4ED8;stroke-width:0.5;" width="139.21" x="526.06" y="911.47"/><ellipse cx="546.5448" cy="927.47" fill="#ADD1B2" rx="11" ry="11" style="stroke:#181818;stroke-width:1;"/><path d="M549.5136,933.1106 Q548.9354,933.4075 548.2948,933.5481 Q547.6542,933.7044 546.9511,933.7044 Q544.4511,933.7044 543.1229,932.0638 Q541.8104,930.4075 541.8104,927.2825 Q541.8104,924.1575 543.1229,922.5013 Q544.4511,920.845 546.9511,920.845 Q547.6542,920.845 548.2948,921.0013 Q548.9511,921.1575 549.5136,921.4544 L549.5136,924.1731 Q548.8886,923.595 548.2948,923.3294 Q547.7011,923.0481 547.0761,923.0481 Q545.7323,923.0481 545.0448,924.1263 Q544.3573,925.1888 544.3573,927.2825 Q544.3573,929.3763 545.0448,930.4544 Q545.7323,931.5169 547.0761,931.5169 Q547.7011,931.5169 548.2948,931.2513 Q548.8886,930.97 549.5136,930.3919 L549.5136,933.1106 Z " fill="#000000"/><text fill="#000000" font-family="sans-serif" font-size="12" lengthAdjust="spacing" textLength="95.0215" x="561.7637" y="931.6243">SessionSpeaker</text><line style="stroke:#1D4ED8;stroke-width:0.5;" x1="527.06" x2="664.27" y1="943.47" y2="943.47"/><text fill="#000000" font-family="sans-serif" font-size="14" lengthAdjust="spacing" textLength="123.1836" x="532.06" y="960.4651">+UUID session_id</text><text fill="#000000" font-family="sans-serif" font-size="14" lengthAdjust="spacing" textLength="127.21" x="532.06" y="976.762">+UUID speaker_id</text><line style="stroke:#1D4ED8;stroke-width:0.5;" x1="527.06" x2="664.27" y1="984.0638" y2="984.0638"/></g><!--class Registration--><g class="entity" data-qualified-name="Registration" data-source-line="62" id="ent0008"><rect fill="#EFF6FF" height="96.8906" rx="2.5" ry="2.5" style="stroke:#1D4ED8;stroke-width:0.5;" width="210.4609" x="209.44" y="754.57"/><rect fill="#1D4ED8" height="32" rx="2.5" ry="2.5" style="stroke:#1D4ED8;stroke-width:0.5;" width="210.4609" x="209.44" y="754.57"/><rect fill="#1D4ED8" height="2.5" style="stroke:#1D4ED8;stroke-width:0.5;" width="210.4609" x="209.44" y="784.07"/><rect fill="none" height="96.8906" rx="2.5" ry="2.5" style="stroke:#1D4ED8;stroke-width:0.5;" width="210.4609" x="209.44" y="754.57"/><ellipse cx="273.9693" cy="770.57" fill="#ADD1B2" rx="11" ry="11" style="stroke:#181818;stroke-width:1;"/><path d="M276.938,776.2106 Q276.3599,776.5075 275.7193,776.6481 Q275.0787,776.8044 274.3755,776.8044 Q271.8755,776.8044 270.5474,775.1638 Q269.2349,773.5075 269.2349,770.3825 Q269.2349,767.2575 270.5474,765.6013 Q271.8755,763.945 274.3755,763.945 Q275.0787,763.945 275.7193,764.1013 Q276.3755,764.2575 276.938,764.5544 L276.938,767.2731 Q276.313,766.695 275.7193,766.4294 Q275.1255,766.1481 274.5005,766.1481 Q273.1568,766.1481 272.4693,767.2263 Q271.7818,768.2888 271.7818,770.3825 Q271.7818,772.4763 272.4693,773.5544 Q273.1568,774.6169 274.5005,774.6169 Q275.1255,774.6169 275.7193,774.3513 Q276.313,774.07 276.938,773.4919 L276.938,776.2106 Z " fill="#000000"/><text fill="#000000" font-family="sans-serif" font-size="12" lengthAdjust="spacing" textLength="72.9023" x="294.4693" y="774.7243">Registration</text><line style="stroke:#1D4ED8;stroke-width:0.5;" x1="210.44" x2="418.9009" y1="786.57" y2="786.57"/><text fill="#000000" font-family="sans-serif" font-size="14" lengthAdjust="spacing" textLength="158.7852" x="215.44" y="803.5651">+UUID         session_id</text><line style="stroke:#1D4ED8;stroke-width:0.5;" x1="210.44" x2="418.9009" y1="810.8669" y2="810.8669"/><text fill="#000000" font-family="sans-serif" font-size="14" lengthAdjust="spacing" textLength="198.4609" x="215.44" y="827.862">+VARCHAR(254) user_email</text><text fill="#000000" font-family="sans-serif" font-size="14" lengthAdjust="spacing" textLength="160.877" x="215.44" y="844.1589">+VARCHAR(20)  status</text></g><ellipse cx="401.67" cy="951.76" fill="#1D4ED8" rx="2" ry="2" style="stroke:#1D4ED8;stroke-width:1;"/><!--reverse link Base to Conference--><g class="link" data-entity-1="ent0002" data-entity-2="ent0003" data-link-type="extension" data-source-line="68" id="lnk9"><path codeLine="68" d="M271.8,127.95 C271.8,180.06 271.8,234.95 271.8,234.95 C271.8,234.95 241.31,234.95 206.53,234.95" fill="none" id="Base-backto-Conference" style="stroke:#1D4ED8;stroke-width:1;"/><polygon fill="none" points="271.8,109.95,265.8,127.95,277.8,127.95,271.8,109.95" style="stroke:#1D4ED8;stroke-width:1;"/></g><!--reverse link Base to Track--><g class="link" data-entity-1="ent0002" data-entity-2="ent0004" data-link-type="extension" data-source-line="69" id="lnk10"><path codeLine="69" d="M274.53,128.01 C274.53,194.14 274.53,290.41 274.53,359" fill="none" id="Base-backto-Track" style="stroke:#1D4ED8;stroke-width:1;"/><polygon fill="none" points="274.53,110.01,268.53,128.01,280.53,128.01,274.53,110.01" style="stroke:#1D4ED8;stroke-width:1;"/></g><!--reverse link Base to Session--><g class="link" data-entity-1="ent0002" data-entity-2="ent0005" data-link-type="extension" data-source-line="70" id="lnk11"><path codeLine="70" d="M297.75,128.14 C297.75,225.03 297.75,416.54 297.75,532.4" fill="none" id="Base-backto-Session" style="stroke:#1D4ED8;stroke-width:1;"/><polygon fill="none" points="297.75,110.14,291.75,128.14,303.75,128.14,297.75,110.14" style="stroke:#1D4ED8;stroke-width:1;"/></g><!--reverse link Base to Speaker--><g class="link" data-entity-1="ent0002" data-entity-2="ent0006" data-link-type="extension" data-source-line="71" id="lnk12"><path codeLine="71" d="M434.03,128.14 C434.03,314.38 434.03,931.31 434.03,1112.73" fill="none" id="Base-backto-Speaker" style="stroke:#1D4ED8;stroke-width:1;"/><polygon fill="none" points="434.03,110.14,428.03,128.14,440.03,128.14,434.03,110.14" style="stroke:#1D4ED8;stroke-width:1;"/></g><!--reverse link Base to SessionSpeaker--><g class="link" data-entity-1="ent0002" data-entity-2="ent0007" data-link-type="extension" data-source-line="72" id="lnk13"><path codeLine="72" d="M448.15,128.06 C448.15,315.49 448.15,930.95 448.15,930.95 C448.15,930.95 487.67,930.95 525.8,930.95" fill="none" id="Base-backto-SessionSpeaker" style="stroke:#1D4ED8;stroke-width:1;"/><polygon fill="none" points="448.15,110.06,442.15,128.06,454.15,128.06,448.15,110.06" style="stroke:#1D4ED8;stroke-width:1;"/></g><!--reverse link Base to Registration--><g class="link" data-entity-1="ent0002" data-entity-2="ent0008" data-link-type="extension" data-source-line="73" id="lnk14"><path codeLine="73" d="M369.07,128.18 C369.07,265.71 369.07,620.8 369.07,754.52" fill="none" id="Base-backto-Registration" style="stroke:#1D4ED8;stroke-width:1;"/><polygon fill="none" points="369.07,110.18,363.07,128.18,375.07,128.18,369.07,110.18" style="stroke:#1D4ED8;stroke-width:1;"/></g><!--reverse link Conference to Track--><g class="link" data-entity-1="ent0003" data-entity-2="ent0004" data-link-type="composition" data-source-line="75" id="lnk15"><path codeLine="75" d="M143.21,311.78 C143.21,331.17 143.21,340.26 143.21,359.07" fill="none" id="Conference-backto-Track" style="stroke:#1D4ED8;stroke-width:1;"/><polygon fill="#1D4ED8" points="143.21,299.78,139.21,305.78,143.21,311.78,147.21,305.78,143.21,299.78" style="stroke:#1D4ED8;stroke-width:1;"/><text fill="#000000" font-family="sans-serif" font-size="13" lengthAdjust="spacing" textLength="22.9785" x="144.21" y="325.4869">has</text><text fill="#000000" font-family="sans-serif" font-size="13" lengthAdjust="spacing" textLength="8.271" x="138.5797" y="319.3528">1</text><text fill="#000000" font-family="sans-serif" font-size="13" lengthAdjust="spacing" textLength="23.0356" x="114.4894" y="348.3043">0..*</text></g><!--reverse link Track to Session--><g class="link" data-entity-1="ent0004" data-entity-2="ent0005" data-link-type="composition" data-source-line="76" id="lnk16"><path codeLine="76" d="M188.18,484.8 C188.18,503.27 188.18,512.15 188.18,532.05" fill="none" id="Track-backto-Session" style="stroke:#1D4ED8;stroke-width:1;"/><polygon fill="#1D4ED8" points="188.18,472.8,184.18,478.8,188.18,484.8,192.18,478.8,188.18,472.8" style="stroke:#1D4ED8;stroke-width:1;"/><text fill="#000000" font-family="sans-serif" font-size="13" lengthAdjust="spacing" textLength="55.0278" x="189.18" y="498.4969">contains</text><text fill="#000000" font-family="sans-serif" font-size="13" lengthAdjust="spacing" textLength="8.271" x="180.8685" y="492.7233">1</text><text fill="#000000" font-family="sans-serif" font-size="13" lengthAdjust="spacing" textLength="23.0356" x="162.4326" y="521.4751">0..*</text></g><!--reverse link Session to Registration--><g class="link" data-entity-1="ent0005" data-entity-2="ent0008" data-link-type="composition" data-source-line="77" id="lnk17"><path codeLine="77" d="M263.84,706.99 C263.84,727.16 263.84,736.14 263.84,754.18" fill="none" id="Session-backto-Registration" style="stroke:#1D4ED8;stroke-width:1;"/><polygon fill="#1D4ED8" points="263.84,694.99,259.84,700.99,263.84,706.99,267.84,700.99,263.84,694.99" style="stroke:#1D4ED8;stroke-width:1;"/><text fill="#000000" font-family="sans-serif" font-size="13" lengthAdjust="spacing" textLength="22.9785" x="264.84" y="720.6569">has</text><text fill="#000000" font-family="sans-serif" font-size="13" lengthAdjust="spacing" textLength="8.271" x="260.2492" y="714.7068">1</text><text fill="#000000" font-family="sans-serif" font-size="13" lengthAdjust="spacing" textLength="23.0356" x="232.0773" y="743.3341">0..*</text></g><!--link Session to apoint19--><g class="link" data-entity-1="ent0005" data-entity-2="ent0020" data-link-type="association" data-source-line="79" id="lnk21"><path d="M154.27,695.03 C154.27,795.16 154.27,951.95 154.27,951.95 C154.27,951.95 373.53,951.95 399.22,951.95" fill="none" id="Session-apoint19" style="stroke:#1D4ED8;stroke-width:1;"/><text fill="#000000" font-family="sans-serif" font-size="13" lengthAdjust="spacing" textLength="56.4751" x="97.27" y="942.0269">presents</text><text fill="#000000" font-family="sans-serif" font-size="13" lengthAdjust="spacing" textLength="23.0356" x="125.6084" y="714.7503">0..*</text></g><!--link apoint19 to Speaker--><g class="link" data-entity-1="ent0020" data-entity-2="ent0006" data-link-type="association" data-source-line="79" id="lnk22"><path d="M401.67,954.12 C401.67,969.46 401.67,1056.36 401.67,1112.69" fill="none" id="apoint19-Speaker" style="stroke:#1D4ED8;stroke-width:1;"/><text fill="#000000" font-family="sans-serif" font-size="13" lengthAdjust="spacing" textLength="23.0356" x="372.1336" y="1101.8469">0..*</text></g><!--link apoint19 to SessionSpeaker--><g class="link" data-entity-1="ent0020" data-entity-2="ent0007" data-link-type="association" data-source-line="79" id="lnk23"><path d="M404.12,951.95 C416.82,951.95 476.4,951.95 525.78,951.95" fill="none" id="apoint19-SessionSpeaker" style="stroke:#1D4ED8;stroke-width:1;stroke-dasharray:7,7;"/></g><?plantuml-src VLFHRjem57tFLrZmKhg1I27jDbMLA2Gh3zqcIAjfByWa5x08TcIRJUtMVvyJ9y59NFm4znpVS-wviTWJccAE3oXAi10JAJbP7oNC8qQNv1NGq15rIi2ep17toe3MEDflEJlIUCeInb4to8_1I0W5-P82Obpkc6CWU2qanv54VnsapdsZbJxTm0syuBDcC1u3Dz6SCRxnl6lDU02i6CrEtT5ex7gUmSY6gQjess_DgSzxyuFWMjqwuysTZVtPftFUMeptl6M_9vopFqsHgiURurIPQlVtM02wlIshTtV5F1_GqzDyLZKWSL4Dvu_-Cfmy_WX_8HHnm1Aiq875P4CKfYIrqfJH3N2W4LGIpvF5z66okBWQ3di8KNo01k3cW4YEMvi64X9pALPOMb6WiO6LBRsi8vBa0A-CmibUgCRVsuUFAkUhAeUQGulpcrv-KUsXzER_3AkECOY8arGIHayEbY24AjWzPDlPj-L7cRmaCW6RJBbLMpndiwj7D_yM-b_zHH46Jd54v4jvRVdiJyFl6XI0URHR_OP8ghbFWwM0zy3jQxTabzVnPaCIWlE8BAEj2MibrzJ90nGQEqMdgvgQLQik2zYIB2_vxX9QlIh7thY7Za8rX0CcIMkUNfwtF8fCJJ-vV_s-yIICOluX6l-BuSoADj_cj05p9iSndY3gk1rqgHYTuM1msIa-__9yGJii7BFMe9VVQabNJqHYGeLZ0eqxjNmB2ODUiFg6IB5FBP5o442bS2wAInzBGWyD1eq8_WC0?></g></svg>